<?xml version="1.0" encoding="UTF-8" standalone="no"?>
<!-- Created with Inkscape (http://www.inkscape.org/) -->

<svg xmlns:dc="http://purl.org/dc/elements/1.1/" xmlns:cc="http://creativecommons.org/ns#" xmlns:rdf="http://www.w3.org/1999/02/22-rdf-syntax-ns#" xmlns:svg="http://www.w3.org/2000/svg" xmlns="http://www.w3.org/2000/svg" xmlns:sodipodi="http://sodipodi.sourceforge.net/DTD/sodipodi-0.dtd" xmlns:inkscape="http://www.inkscape.org/namespaces/inkscape" width="4" height="3" viewBox="0 0 4 3" version="1.1" id="svg871" sodipodi:docname="raw_outline.svg" inkscape:version="0.92.3 (2405546, 2018-03-11)">
  <sodipodi:namedview id="base" pagecolor="#ffffff" bordercolor="#666666" borderopacity="1.0" inkscape:pageopacity="0.0" inkscape:pageshadow="2" inkscape:zoom="63.356765" inkscape:cx="-2.3177264" inkscape:cy="4.3155226" inkscape:document-units="px" inkscape:current-layer="svg871" showgrid="false" inkscape:window-width="1920" inkscape:window-height="1027" inkscape:window-x="0" inkscape:window-y="0" inkscape:window-maximized="1" fit-margin-top="0" fit-margin-left="0" fit-margin-right="0" fit-margin-bottom="0" units="px" />
  <defs id="defs865" />
  <metadata id="metadata868">
    <rdf:RDF>
      <cc:Work rdf:about="">
        <dc:format>image/svg+xml</dc:format>
        <dc:type rdf:resource="http://purl.org/dc/dcmitype/StillImage" />
        <dc:title></dc:title>
      </cc:Work>
    </rdf:RDF>
  </metadata>
  <path inkscape:connector-curvature="0" d="M 3.5,2.625 H 4 V 3 H 3.5 Z" style="fill:#ff0000;fill-opacity:1;stroke:none;stroke-width:0.02;stroke-linejoin:round;stroke-opacity:1" inkscape:label="Face:1" id="path1704" />
  <path inkscape:connector-curvature="0" d="M 3.5,0 H 4 V 0.375 H 3.5 Z" style="fill:#ff0000;fill-opacity:1;stroke:none;stroke-width:0.02;stroke-linejoin:round;stroke-opacity:1" inkscape:label="Face:4" id="path1706" />
  <path inkscape:connector-curvature="0" d="M 2.335262,0.6439 L 2.51116,0.61184 L 2.545589,0.61223 L 2.687124,0.614 L 2.831766,0.6345 L 2.878506,0.64139 L 2.964758,0.66942 L 3.037886,0.69757 L 3.0676,0.71145 L 3.152327,0.77215 L 3.234794,0.8758 L 3.254018,0.90257 L 3.263429,0.92013 L 3.364455,1.07709 L 3.398871,1.15054 L 3.440227,1.23206 L 3.457251,1.29283 L 3.496264,1.41817 L 3.510909,1.50638 L 3.5255,1.5885 L 3.537036,1.68121 L 3.541022,1.81983 L 3.538769,1.90539 L 3.521871,2.00417 L 3.51055,2.07657 L 3.500069,2.13285 L 3.455375,2.2501 L 3.404063,2.31861 L 3.350611,2.37076 L 3.277195,2.42409 L 3.139792,2.47104 L 3.134293,2.47211 L 3.129847,2.4733 L 2.937189,2.49271 L 2.835762,2.47836 L 2.700832,2.47434 L 2.575796,2.45504 L 2.561507,2.45167 L 2.539797,2.43917 L 2.468192,2.40225 L 2.446544,2.38117 L 2.415404,2.3306 L 2.3691,2.26113 L 2.335547,2.15976 L 2.326594,2.12269 L 2.332551,2.00503 L 2.339384,1.97958 L 2.389489,1.87491 L 2.431089,1.79749 L 2.461443,1.74353 L 2.476187,1.70539 L 2.499152,1.64946 L 2.450631,1.56647 L 2.449178,1.5603 L 2.44646,1.55747 L 2.441408,1.55631 L 2.405068,1.5401 L 2.301398,1.49185 L 2.292403,1.48448 L 2.21898,1.43068 L 2.209234,1.41356 L 2.205603,1.39103 L 2.202793,1.33846 L 2.212305,1.30948 L 2.246164,1.27817 L 2.275936,1.25354 L 2.370977,1.21192 L 2.389537,1.20687 L 2.482478,1.19436 L 2.624831,1.21038 L 2.631869,1.21164 L 2.637151,1.21371 L 2.655525,1.21776 L 2.802675,1.25792 L 2.894479,1.31217 L 2.909099,1.32274 L 2.91694,1.33395 L 2.977774,1.40246 L 2.955742,1.48584 L 2.946158,1.60708 L 2.948231,1.67931 L 2.922326,1.73109 L 2.874837,1.83956 L 2.862921,1.91159 L 2.850335,1.98292 L 2.853019,2.01366 L 2.894356,2.08203 L 2.918784,2.08619 L 3.010435,2.06971 L 3.063035,2.03359 L 3.113324,1.97837 L 3.15526,1.86603 L 3.163733,1.80785 L 3.175696,1.65484 L 3.171816,1.60614 L 3.15633,1.49821 L 3.139053,1.40559 L 3.125684,1.34061 L 3.122205,1.23697 L 3.080656,1.13253 L 3.069943,1.09604 L 3.059731,1.07751 L 2.974888,0.95975 L 2.957604,0.93137 L 2.955311,0.92609 L 2.950103,0.91988 L 2.944192,0.91728 L 2.922036,0.90528 L 2.815317,0.83726 L 2.689952,0.81437 L 2.673313,0.80967 L 2.661347,0.80988 L 2.495559,0.8335 L 2.430775,0.85221 L 2.341168,0.90255 L 2.243019,0.9509 L 2.211531,0.9735 L 2.091035,1.05327 L 2.065283,1.07049 L 1.903368,1.13833 L 1.879418,1.14847 L 1.846328,1.15857 L 1.716223,1.2006 L 1.614472,1.1945 L 1.595655,1.1933 L 1.58172,1.18961 L 1.451481,1.14457 L 1.396763,1.11506 L 1.260992,1.0428 L 1.231174,1.02893 L 1.099481,0.98667 L 1.057712,0.99023 L 0.984189,0.99258 L 0.940516,1.00986 L 0.90509,1.04402 L 0.879326,1.07946 L 0.871761,1.10133 L 0.87272,1.1344 L 0.87378,1.18197 L 0.91327,1.28037 L 0.924304,1.30392 L 0.990393,1.3813 L 1.009858,1.39614 L 1.09579,1.45037 L 1.143609,1.4695 L 1.300425,1.49835 L 1.352689,1.50199 L 1.477683,1.50395 L 1.591539,1.51601 L 1.708001,1.53512 L 1.742818,1.54169 L 1.755646,1.5477 L 1.861851,1.60251 L 1.925408,1.65917 L 2.019725,1.74641 L 2.057327,1.80379 L 2.084663,1.86818 L 2.107332,1.91553 L 2.123319,2.00505 L 2.122191,2.03706 L 2.101761,2.11693 L 2.055044,2.19902 L 2.053971,2.20108 L 2.053164,2.20172 L 1.975477,2.27989 L 1.927266,2.31303 L 1.833043,2.35179 L 1.787021,2.36376 L 1.690257,2.36111 L 1.560853,2.35515 L 1.418545,2.3361 L 1.282184,2.32071 L 1.108581,2.24379 L 1.094832,2.23754 L 1.090665,2.23531 L 1.087908,2.22844 L 1.075138,2.21251 L 1.027999,2.12471 L 1.03798,2.09966 L 1.06407,2.0678 L 1.153914,2.02922 L 1.189324,2.01711 L 1.236377,2.01192 L 1.284057,2.00835 L 1.31779,2.01453 L 1.399145,2.02282 L 1.474878,2.02489 L 1.579465,2.00481 L 1.616024,2.00173 L 1.595243,1.96096 L 1.606966,1.93603 L 1.594236,1.9225 L 1.550965,1.91313 L 1.370261,1.88016 L 1.162724,1.82623 L 1.07142,1.81226 L 1.037401,1.80148 L 0.966977,1.77809 L 0.864297,1.74172 L 0.825729,1.69888 L 0.760616,1.64442 L 0.728197,1.58089 L 0.685469,1.44186 L 0.665374,1.34727 L 0.648819,1.18895 L 0.649201,1.07123 L 0.660734,0.94244 L 0.673474,0.8907 L 0.726954,0.81064 L 0.762247,0.79082 L 0.876983,0.75262 L 1.055564,0.72575 L 1.069538,0.72549 L 1.275736,0.74839 L 1.33058,0.75253 L 1.5147,0.78122 L 1.620248,0.785 L 1.767863,0.76638 L 1.838458,0.7623 L 2.025605,0.72117 L 2.070674,0.71167 L 2.30485,0.6483 Z" style="fill:#ff0000;fill-opacity:1;stroke:none;stroke-width:0.02;stroke-linejoin:round;stroke-opacity:1" inkscape:label="outline" id="outline" />
  <path inkscape:connector-curvature="0" d="M 0,2.625 H 0.5 V 3 H 0 Z" style="fill:#ff0000;fill-opacity:1;stroke:none;stroke-width:0.02;stroke-linejoin:round;stroke-opacity:1" inkscape:label="Face:2" id="path1710" />
  <path inkscape:connector-curvature="0" d="M 0,0 H 0.5 V 0.375 H 0 Z" style="fill:#ff0000;fill-opacity:1;stroke:none;stroke-width:0.02;stroke-linejoin:round;stroke-opacity:1" inkscape:label="Face:3" id="path1712" />
</svg>
