<?xml version="1.0" encoding="UTF-8" standalone="no"?>
<svg xmlns:dc="http://purl.org/dc/elements/1.1/" xmlns:cc="http://creativecommons.org/ns#" xmlns:rdf="http://www.w3.org/1999/02/22-rdf-syntax-ns#" xmlns:svg="http://www.w3.org/2000/svg" xmlns="http://www.w3.org/2000/svg" xmlns:sodipodi="http://sodipodi.sourceforge.net/DTD/sodipodi-0.dtd" xmlns:inkscape="http://www.inkscape.org/namespaces/inkscape" width="34" height="28" viewBox="0 0 34 28.000001" version="1.1" id="svg864" sodipodi:docname="map.svg" inkscape:version="0.92.3 (2405546, 2018-03-11)">
  <sodipodi:namedview pagecolor="#ffffff" bordercolor="#666666" borderopacity="1" objecttolerance="10" gridtolerance="10" guidetolerance="10" inkscape:pageopacity="0" inkscape:pageshadow="2" inkscape:window-width="1920" inkscape:window-height="1027" id="namedview9" showgrid="false" inkscape:zoom="9.8333333" inkscape:cx="8.1583569" inkscape:cy="8.5241726" inkscape:window-x="0" inkscape:window-y="0" inkscape:window-maximized="1" inkscape:current-layer="svg864" />
  <defs id="defs858" />
  <metadata id="metadata861">
    <rdf:RDF>
      <cc:Work rdf:about="">
        <dc:format>image/svg+xml</dc:format>
        <dc:type rdf:resource="http://purl.org/dc/dcmitype/StillImage" />
        <dc:title></dc:title>
      </cc:Work>
    </rdf:RDF>
  </metadata>
  <path style="opacity:1;fill:#2e0040;fill-opacity:0.75585938;stroke:none;stroke-width:0.06098995;stroke-linecap:round;stroke-linejoin:round;stroke-miterlimit:4;stroke-dasharray:none;stroke-opacity:1" d="M 8.8453821,2.0929709 C 7.7273715,2.0929709 6.7460736,2.2066532 5.9055663,2.4281041 C 5.0650688,2.649555 4.3651438,2.9782982 3.8073888,3.4116743 C 3.2496835,3.8450606 2.8261604,4.3817995 2.5429616,5.0318042 C 2.2597033,5.6818092 2.1162136,6.4450695 2.1162136,7.3301191 C 2.1162136,7.7543467 2.2027182,8.120399 2.3552671,8.446562 C 2.5078061,8.772725 2.7266275,9.059754 2.995389,9.325033 C 3.5329219,9.85555 4.271773,10.285751 5.0244163,10.701247 C 5.7770101,11.116743 6.5421757,11.516938 7.1364157,12.02392 C 7.4335457,12.277407 7.6885348,12.563652 7.8693926,12.890499 C 8.0502008,13.217347 8.1578404,13.583479 8.1578404,13.999004 C 8.1578404,14.41453 8.0502008,14.782646 7.8693926,15.109493 C 7.6885348,15.436341 7.4335457,15.722586 7.1364157,15.976077 C 6.5421757,16.483058 5.7770101,16.883254 5.0244163,17.298749 C 4.271773,17.714245 3.5329219,18.144456 2.995389,18.674964 C 2.7266275,18.940242 2.5078061,19.227282 2.3552671,19.553435 C 2.2027182,19.879599 2.1162136,20.243656 2.1162136,20.667894 C 2.1162136,21.552913 2.2597033,22.316183 2.5429616,22.966209 C 2.8261604,23.616202 3.2496835,24.152971 3.8073888,24.586338 C 4.3651438,25.019744 5.0650688,25.350451 5.9055663,25.571892 C 6.7460736,25.793374 7.7273715,25.907026 8.8453821,25.907026 C 9.9391024,25.907026 10.74758,25.621476 11.409809,25.185201 C 12.071999,24.748968 12.58797,24.162338 13.09506,23.559128 C 13.348591,23.257533 13.597973,22.950362 13.859651,22.660822 C 14.121288,22.371293 14.39502,22.098077 14.699314,21.859688 C 15.003568,21.62133 15.341005,21.42009 15.720749,21.278664 C 16.100493,21.137238 16.521675,21.056569 16.999008,21.056569 C 17.476362,21.056569 17.899507,21.137238 18.279251,21.278664 C 18.658996,21.42009 18.996423,21.62133 19.300677,21.859688 C 19.604961,22.098077 19.878703,22.371293 20.14034,22.660822 C 20.402018,22.950362 20.6514,23.257533 20.904931,23.559128 C 21.412031,24.162338 21.927982,24.748968 22.590182,25.185201 C 23.252411,25.621476 24.060928,25.907026 25.15462,25.907026 C 26.272659,25.907026 27.253937,25.793374 28.094435,25.571892 C 28.934931,25.350451 29.634858,25.019744 30.192602,24.586338 C 30.750307,24.152971 31.171848,23.616202 31.455064,22.966209 C 31.738303,22.316183 31.883788,21.552913 31.883788,20.667894 C 31.883788,20.243656 31.797273,19.879599 31.644724,19.553435 C 31.492186,19.227282 31.273353,18.940242 31.004613,18.674964 C 30.46706,18.144456 29.728228,17.714245 28.975584,17.298749 C 28.222981,16.883254 27.457854,16.483058 26.863586,15.976077 C 26.566435,15.722586 26.311457,15.436341 26.130608,15.109493 C 25.949789,14.782646 25.842151,14.41453 25.842151,13.999004 C 25.842151,13.583479 25.949789,13.217347 26.130608,12.890499 C 26.311457,12.563652 26.566435,12.277407 26.863586,12.02392 C 27.457854,11.516938 28.222981,11.116743 28.975584,10.701247 C 29.728228,10.285751 30.46706,9.85555 31.004613,9.325033 C 31.273353,9.059754 31.492186,8.772725 31.644724,8.446562 C 31.797273,8.120399 31.883788,7.7543467 31.883788,7.3301191 C 31.883788,6.4450695 31.738303,5.6818092 31.455064,5.0318042 C 31.171848,4.3817995 30.750307,3.8450606 30.192602,3.4116743 C 29.634858,2.9782982 28.934931,2.649555 28.094435,2.4281041 C 27.253937,2.2066532 26.272659,2.0929709 25.15462,2.0929709 C 24.060928,2.0929709 23.252411,2.3785312 22.590182,2.8147849 C 21.927982,3.2510485 21.412031,3.8376285 20.904931,4.4408684 C 20.6514,4.7424634 20.402018,5.0476606 20.14034,5.3371899 C 19.878703,5.6267192 19.604961,5.8999261 19.300677,6.1383247 C 18.996423,6.3766934 18.658996,6.577942 18.279251,6.7193479 C 17.899507,6.8607638 17.476362,6.9434284 16.999008,6.9434284 C 16.521675,6.9434284 16.100493,6.8607638 15.720749,6.7193479 C 15.341005,6.577942 15.003568,6.3766934 14.699314,6.1383247 C 14.39502,5.8999261 14.121288,5.6267192 13.859651,5.3371899 C 13.597973,5.0476606 13.348591,4.7424634 13.09506,4.4408684 C 12.58797,3.8376285 12.071999,3.2510485 11.409809,2.8147849 C 10.74758,2.3785312 9.9391024,2.0929709 8.8453821,2.0929709 Z" id="outline" inkscape:connector-curvature="0" />
  <path style="opacity:1;fill:#00ff00;fill-opacity:1;stroke:none;stroke-width:0.06098995;stroke-linecap:round;stroke-linejoin:round;stroke-miterlimit:4;stroke-dasharray:none;stroke-opacity:1" d="M 17,10.658095 C 17.539866,10.658095 18.057197,10.750214 18.529289,10.917593 C 19.001382,11.084972 19.428236,11.327611 19.787148,11.628649 C 20.146055,11.92969 20.437059,12.289035 20.638337,12.689866 C 20.839614,13.090696 20.951164,13.533012 20.951164,13.999996 C 20.951164,14.466974 20.839614,14.90929 20.638337,15.310123 C 20.437059,15.710955 20.146055,16.070304 19.787148,16.371348 C 19.428236,16.672391 19.001382,16.915029 18.529289,17.082407 C 18.057197,17.249784 17.539866,17.341901 17,17.341901 C 16.460139,17.341901 15.943316,17.249784 15.47173,17.082407 C 15.000144,16.915029 14.573794,16.672391 14.214882,16.371348 C 13.855969,16.070304 13.564458,15.710956 13.362674,15.310123 C 13.160891,14.90929 13.048836,14.466974 13.048836,13.999996 C 13.048836,13.533012 13.160891,13.090696 13.362675,12.689866 C 13.564458,12.289035 13.85597,11.92969 14.214882,11.628649 C 14.573794,11.327611 15.000144,11.084972 15.47173,10.917593 C 15.943316,10.750214 16.460139,10.658095 17,10.658095 Z" id="islands" inkscape:connector-curvature="0" />
  <text id="config" y="34.816921" x="-3.8715732" style="font-style:normal;font-weight:normal;font-size:12.12555885px;line-height:125%;font-family:sans-serif;letter-spacing:0px;word-spacing:0px;fill:#000000;fill-opacity:1;stroke:none;stroke-width:1px;stroke-linecap:butt;stroke-linejoin:miter;stroke-opacity:1" xml:space="preserve"><tspan style="font-size:4px;stroke-width:1px" y="34.816921" x="-3.8715732" id="tspan816">{&quot;MAP_SCALING&quot;:1.5}</tspan></text>
</svg>
