<?xml version="1.0" encoding="UTF-8" standalone="no"?>
<svg xmlns:dc="http://purl.org/dc/elements/1.1/" xmlns:cc="http://creativecommons.org/ns#" xmlns:rdf="http://www.w3.org/1999/02/22-rdf-syntax-ns#" xmlns:svg="http://www.w3.org/2000/svg" xmlns="http://www.w3.org/2000/svg" xmlns:xlink="http://www.w3.org/1999/xlink" xmlns:sodipodi="http://sodipodi.sourceforge.net/DTD/sodipodi-0.dtd" xmlns:inkscape="http://www.inkscape.org/namespaces/inkscape" width="256" height="256" viewBox="0 0 256 256" version="1.1" id="svg18" sodipodi:docname="hextex.svg" inkscape:version="0.92.3 (2405546, 2018-03-11)" inkscape:export-filename="/home/mirko/development/acechase_sandbox/levels/hackerland2/hextex.png" inkscape:export-xdpi="96" inkscape:export-ydpi="96">
  <metadata id="metadata24">
    <rdf:RDF>
      <cc:Work rdf:about="">
        <dc:format>image/svg+xml</dc:format>
        <dc:type rdf:resource="http://purl.org/dc/dcmitype/StillImage" />
        <dc:title></dc:title>
      </cc:Work>
    </rdf:RDF>
  </metadata>
  <defs id="defs22">
    <linearGradient inkscape:collect="always" id="linearGradient875">
      <stop style="stop-color:#020202;stop-opacity:1" offset="0" id="stop871" />
      <stop style="stop-color:#1700b3;stop-opacity:1" offset="1" id="stop873" />
    </linearGradient>
    <radialGradient inkscape:collect="always" xlink:href="#linearGradient875" id="radialGradient877" cx="511.99997" cy="511.99997" fx="511.99997" fy="511.99997" r="511.89841" gradientUnits="userSpaceOnUse" gradientTransform="matrix(0.25,0,0,0.25,0.07617187,-0.0762)" />
    <filter inkscape:collect="always" style="color-interpolation-filters:sRGB" id="filter970" x="-0.052737691" width="1.1054754" y="-0.055324219" height="1.1106484">
      <feGaussianBlur inkscape:collect="always" stdDeviation="8.6382862" id="feGaussianBlur972" />
    </filter>
    <filter inkscape:collect="always" style="color-interpolation-filters:sRGB" id="filter1384" x="-0.023208199" width="1.0464164" y="-0.020204182" height="1.0404084">
      <feGaussianBlur inkscape:collect="always" stdDeviation="4.6084319" id="feGaussianBlur1386" />
    </filter>
  </defs>
  <sodipodi:namedview pagecolor="#ffffff" bordercolor="#666666" borderopacity="1" objecttolerance="10" gridtolerance="10" guidetolerance="10" inkscape:pageopacity="0" inkscape:pageshadow="2" inkscape:window-width="1920" inkscape:window-height="1027" id="namedview20" showgrid="false" inkscape:zoom="1.84375" inkscape:cx="-32.673749" inkscape:cy="105.36545" inkscape:window-x="0" inkscape:window-y="0" inkscape:window-maximized="1" inkscape:current-layer="svg18" inkscape:snap-intersection-paths="true" />
  <desc id="desc2">'hackerland2.blend', Cylinder.001, (Blender 2.79 (sub 0))</desc>
  <path style="fill:url(#radialGradient877);fill-opacity:1;stroke:none;stroke-width:10;stroke-miterlimit:4;stroke-dasharray:none" d="M 93.785644,-0.05081 L 34.392577,34.24021 L 68.683104,93.63327 H 0.1015625 V 162.21433 H 68.683104 L 34.392577,221.60739 L 93.785644,255.8984 L 128.07617,196.50486 L 162.3667,255.8984 L 221.75977,221.60739 L 187.46924,162.21433 H 256.05077 V 93.63327 H 187.46924 L 221.75977,34.24021 L 162.3667,-0.05081 L 128.07617,59.34275 Z" id="polygon854" inkscape:connector-curvature="0" />
  <path style="opacity:1;vector-effect:none;fill:none;fill-opacity:0.37837842;fill-rule:evenodd;stroke:#008080;stroke-width:4;stroke-linecap:round;stroke-linejoin:round;stroke-miterlimit:4;stroke-dasharray:none;stroke-dashoffset:0;stroke-opacity:1" d="M 75.116559,158.50025 L 128.07621,127.92381" id="path1580" inkscape:connector-curvature="0" sodipodi:nodetypes="cc" />
  <path id="path822" d="M 59.494141 -59.443359 L 0.1015625 -25.152344 L 34.392578 34.240234 L 68.683594 93.632812 L 0.1015625 93.632812 L -68.480469 93.632812 L -68.480469 162.21484 L 0.1015625 162.21484 L 68.683594 162.21484 L 34.392578 221.60742 L 0.1015625 281 L 59.496094 315.29102 L 93.785156 255.89844 L 128.07617 196.50586 L 162.36719 255.89844 L 196.6582 315.29102 L 256.05078 281 L 221.75977 221.60742 L 187.46875 162.21484 L 256.05078 162.21484 L 324.63281 162.21484 L 324.63281 93.632812 L 256.05078 93.632812 L 187.46875 93.632812 L 221.75977 34.240234 L 256.05078 -25.152344 L 196.6582 -59.443359 L 162.36719 -0.05078125 L 128.07617 59.341797 L 93.785156 -0.05078125 L 59.494141 -59.443359 z " style="fill:none;fill-opacity:1;stroke:#00ffff;stroke-width:30;stroke-miterlimit:4;stroke-dasharray:none;stroke-linejoin:round;filter:url(#filter970)" />
  <path style="opacity:1;vector-effect:none;fill:none;fill-opacity:0.37837842;fill-rule:evenodd;stroke:#008080;stroke-width:4;stroke-linecap:round;stroke-linejoin:round;stroke-miterlimit:4;stroke-dasharray:none;stroke-dashoffset:0;stroke-opacity:1" d="M 180.95725,158.36335 L 128.07621,127.92381" id="path1582" inkscape:connector-curvature="0" sodipodi:nodetypes="cc" />
  <path style="fill:none;fill-opacity:1;stroke:#ffffff;stroke-width:20;stroke-miterlimit:4;stroke-dasharray:none;stroke-linejoin:round;stroke-opacity:0.85470086" d="M 59.494141 -59.443359 L 0.1015625 -25.152344 L 34.392578 34.240234 L 68.683594 93.632812 L 0.1015625 93.632812 L -68.480469 93.632812 L -68.480469 162.21484 L 0.1015625 162.21484 L 68.683594 162.21484 L 34.392578 221.60742 L 0.1015625 281 L 59.496094 315.29102 L 93.785156 255.89844 L 128.07617 196.50586 L 162.36719 255.89844 L 196.6582 315.29102 L 256.05078 281 L 221.75977 221.60742 L 187.46875 162.21484 L 256.05078 162.21484 L 324.63281 162.21484 L 324.63281 93.632812 L 256.05078 93.632812 L 187.46875 93.632812 L 221.75977 34.240234 L 256.05078 -25.152344 L 196.6582 -59.443359 L 162.36719 -0.05078125 L 128.07617 59.341797 L 93.785156 -0.05078125 L 59.494141 -59.443359 z " id="polygon4" />
  <path style="opacity:1;vector-effect:none;fill:none;fill-opacity:0.37837842;fill-rule:evenodd;stroke:#008080;stroke-width:4;stroke-linecap:round;stroke-linejoin:round;stroke-miterlimit:4;stroke-dasharray:none;stroke-dashoffset:0;stroke-opacity:1" d="M 128.15516,66.907898 L 128.07621,127.92381" id="path1584" inkscape:connector-curvature="0" sodipodi:nodetypes="cc" />
  <polygon points="749.573,649.162 749.572,374.837 512,237.675 274.428,374.837 274.428,649.163 512,786.325 " id="polygon12" style="fill:none;fill-opacity:1;stroke:#0de5ff;stroke-width:67.38906097;stroke-miterlimit:4;stroke-dasharray:none;stroke-opacity:1;filter:url(#filter1384)" transform="matrix(-0.11112796,-0.19247928,0.19305495,-0.11146033,86.129739,283.54098)" />
</svg>
