<?xml version="1.0" encoding="UTF-8" standalone="no"?>
<svg xmlns:dc="http://purl.org/dc/elements/1.1/" xmlns:cc="http://creativecommons.org/ns#" xmlns:rdf="http://www.w3.org/1999/02/22-rdf-syntax-ns#" xmlns:svg="http://www.w3.org/2000/svg" xmlns="http://www.w3.org/2000/svg" xmlns:sodipodi="http://sodipodi.sourceforge.net/DTD/sodipodi-0.dtd" xmlns:inkscape="http://www.inkscape.org/namespaces/inkscape" width="256" height="256" viewBox="0 0 256 256" version="1.1" id="svg44" sodipodi:docname="icotex.svg" inkscape:version="0.92.3 (2405546, 2018-03-11)" inkscape:export-filename="/home/mirko/development/acechase_sandbox/levels/hackerland2/icotex.png" inkscape:export-xdpi="96" inkscape:export-ydpi="96">
  <metadata id="metadata50">
    <rdf:RDF>
      <cc:Work rdf:about="">
        <dc:format>image/svg+xml</dc:format>
        <dc:type rdf:resource="http://purl.org/dc/dcmitype/StillImage" />
        <dc:title></dc:title>
      </cc:Work>
    </rdf:RDF>
  </metadata>
  <defs id="defs48">
    <filter inkscape:collect="always" style="color-interpolation-filters:sRGB" id="filter1153" x="-0.036" width="1.072" y="-0.036" height="1.072">
      <feGaussianBlur inkscape:collect="always" stdDeviation="3.84" id="feGaussianBlur1155" />
    </filter>
  </defs>
  <sodipodi:namedview pagecolor="#ffffff" bordercolor="#666666" borderopacity="1" objecttolerance="10" gridtolerance="10" guidetolerance="10" inkscape:pageopacity="0" inkscape:pageshadow="2" inkscape:window-width="1920" inkscape:window-height="1027" id="namedview46" showgrid="false" inkscape:snap-page="true" inkscape:snap-bbox="true" inkscape:bbox-nodes="false" inkscape:bbox-paths="true" inkscape:zoom="2.6074563" inkscape:cx="33.019579" inkscape:cy="136.76308" inkscape:window-x="0" inkscape:window-y="0" inkscape:window-maximized="1" inkscape:current-layer="svg44" />
  <desc id="desc2">'hackerland2.blend', GD_mesh.001, (Blender 2.79 (sub 0))</desc>
  <rect style="opacity:1;fill:#000000;fill-opacity:1;stroke:#ffffff;stroke-width:0.125;stroke-linecap:round;stroke-linejoin:round;stroke-miterlimit:4;stroke-dasharray:none;stroke-dashoffset:0;stroke-opacity:1" id="rect860" width="256" height="256" x="0" y="7.6293945e-06" />
  <g id="g853">
    <polygon transform="matrix(0.25,0,0,0.25,1.114624e-7,7.640625e-6)" style="fill:none;fill-opacity:0.25;stroke:#ffffff;stroke-width:20;stroke-linecap:round;stroke-linejoin:round;stroke-miterlimit:4;stroke-dasharray:none" id="polygon4" points="169.103,644.134 209.023,959.111 442.718,764.444 " />
    <polygon transform="matrix(0.25,0,0,0.25,1.114624e-7,7.640625e-6)" style="fill:none;fill-opacity:0.25;stroke:#ffffff;stroke-width:20;stroke-linecap:round;stroke-linejoin:round;stroke-miterlimit:4;stroke-dasharray:none" id="polygon6" points="169.103,644.134 0,829.333 209.023,959.111 " />
    <polygon transform="matrix(0.25,0,0,0.25,1.114624e-7,7.640625e-6)" style="fill:none;fill-opacity:0.25;stroke:#ffffff;stroke-width:20;stroke-linecap:round;stroke-linejoin:round;stroke-miterlimit:4;stroke-dasharray:none" id="polygon8" points="169.103,644.134 442.718,764.444 378.126,514.356 " />
    <polygon transform="matrix(0.25,0,0,0.25,1.114624e-7,7.640625e-6)" style="fill:none;fill-opacity:0.25;stroke:#ffffff;stroke-width:20;stroke-linecap:round;stroke-linejoin:round;stroke-miterlimit:4;stroke-dasharray:none" id="polygon10" points="209.023,959.111 442.718,1024 442.718,764.444 " />
    <polygon transform="matrix(0.25,0,0,0.25,1.114624e-7,7.640625e-6)" style="fill:none;fill-opacity:0.25;stroke:#ffffff;stroke-width:20;stroke-linecap:round;stroke-linejoin:round;stroke-miterlimit:4;stroke-dasharray:none" id="polygon12" points="512,98.233 256,257.178 512,416.123 " />
    <polygon transform="matrix(0.25,0,0,0.25,1.114624e-7,7.640625e-6)" style="fill:none;fill-opacity:0.25;stroke:#ffffff;stroke-width:20;stroke-linecap:round;stroke-linejoin:round;stroke-miterlimit:4;stroke-dasharray:none" id="polygon14" points="512,98.233 288.595,0 256,257.178 " />
    <polygon transform="matrix(0.25,0,0,0.25,1.114624e-7,7.640625e-6)" style="fill:none;fill-opacity:0.25;stroke:#ffffff;stroke-width:20;stroke-linecap:round;stroke-linejoin:round;stroke-miterlimit:4;stroke-dasharray:none" id="polygon16" points="885.436,1024 885.436,764.444 651.741,959.111 " />
    <polygon transform="matrix(0.25,0,0,0.25,1.114624e-7,7.640625e-6)" style="fill:none;fill-opacity:0.25;stroke:#ffffff;stroke-width:20;stroke-linecap:round;stroke-linejoin:round;stroke-miterlimit:4;stroke-dasharray:none" id="polygon18" points="800.594,0 768,257.178 1024,98.233 " />
    <polygon transform="matrix(0.25,0,0,0.25,1.114624e-7,7.640625e-6)" style="fill:none;fill-opacity:0.25;stroke:#ffffff;stroke-width:20;stroke-linecap:round;stroke-linejoin:round;stroke-miterlimit:4;stroke-dasharray:none" id="polygon20" points="768,416.123 512,257.178 544.594,514.356 " />
    <polygon transform="matrix(0.25,0,0,0.25,1.114624e-7,7.640625e-6)" style="fill:none;fill-opacity:0.25;stroke:#ffffff;stroke-width:20;stroke-linecap:round;stroke-linejoin:round;stroke-miterlimit:4;stroke-dasharray:none" id="polygon22" points="768,416.123 768,98.233 512,257.178 " />
    <polygon transform="matrix(0.25,0,0,0.25,1.114624e-7,7.640625e-6)" style="fill:none;fill-opacity:0.25;stroke:#ffffff;stroke-width:20;stroke-linecap:round;stroke-linejoin:round;stroke-miterlimit:4;stroke-dasharray:none" id="polygon24" points="651.741,959.111 611.821,644.134 442.718,829.333 " />
    <polygon transform="matrix(0.25,0,0,0.25,1.114624e-7,7.640625e-6)" style="fill:none;fill-opacity:0.25;stroke:#ffffff;stroke-width:20;stroke-linecap:round;stroke-linejoin:round;stroke-miterlimit:4;stroke-dasharray:none" id="polygon26" points="651.741,959.111 885.436,764.444 611.821,644.134 " />
    <polygon transform="matrix(0.25,0,0,0.25,1.114624e-7,7.640625e-6)" style="fill:none;fill-opacity:0.25;stroke:#ffffff;stroke-width:20;stroke-linecap:round;stroke-linejoin:round;stroke-miterlimit:4;stroke-dasharray:none" id="polygon28" points="768,257.178 800.594,514.356 1024,416.123 " />
    <polygon transform="matrix(0.25,0,0,0.25,1.114624e-7,7.640625e-6)" style="fill:none;fill-opacity:0.25;stroke:#ffffff;stroke-width:20;stroke-linecap:round;stroke-linejoin:round;stroke-miterlimit:4;stroke-dasharray:none" id="polygon30" points="768,98.233 544.594,0 512,257.178 " />
    <polygon transform="matrix(0.25,0,0,0.25,1.114624e-7,7.640625e-6)" style="fill:none;fill-opacity:0.25;stroke:#ffffff;stroke-width:20;stroke-linecap:round;stroke-linejoin:round;stroke-miterlimit:4;stroke-dasharray:none" id="polygon32" points="512,416.123 256,257.178 288.594,514.356 " />
    <polygon transform="matrix(0.25,0,0,0.25,1.114624e-7,7.640625e-6)" style="fill:none;fill-opacity:0.25;stroke:#ffffff;stroke-width:20;stroke-linecap:round;stroke-linejoin:round;stroke-miterlimit:4;stroke-dasharray:none" id="polygon34" points="32.594,514.356 256,416.123 0,257.178 " />
    <polygon transform="matrix(0.25,0,0,0.25,1.114624e-7,7.640625e-6)" style="fill:none;fill-opacity:0.25;stroke:#ffffff;stroke-width:20;stroke-linecap:round;stroke-linejoin:round;stroke-miterlimit:4;stroke-dasharray:none" id="polygon36" points="885.436,764.444 820.844,514.356 611.821,644.134 " />
    <polygon transform="matrix(0.25,0,0,0.25,1.114624e-7,7.640625e-6)" style="fill:none;fill-opacity:0.25;stroke:#ffffff;stroke-width:20;stroke-linecap:round;stroke-linejoin:round;stroke-miterlimit:4;stroke-dasharray:none" id="polygon38" points="1024,98.233 768,257.178 1024,416.123 " />
    <polygon transform="matrix(0.25,0,0,0.25,1.114624e-7,7.640625e-6)" style="fill:none;fill-opacity:0.25;stroke:#ffffff;stroke-width:20;stroke-linecap:round;stroke-linejoin:round;stroke-miterlimit:4;stroke-dasharray:none" id="polygon40" points="32.594,0 0,257.178 256,98.233 " />
    <polygon transform="matrix(0.25,0,0,0.25,1.114624e-7,7.640625e-6)" style="fill:none;fill-opacity:0.25;stroke:#ffffff;stroke-width:20;stroke-linecap:round;stroke-linejoin:round;stroke-miterlimit:4;stroke-dasharray:none" id="polygon42" points="256,416.123 256,98.233 0,257.178 " />
  </g>
  <g id="g895" style="stroke-width:8;stroke-miterlimit:4;stroke-dasharray:none;filter:url(#filter1153)">
    <polygon points="169.103,644.134 209.023,959.111 442.718,764.444 " id="polygon855" style="fill:none;fill-opacity:0.25;stroke:#ffffff;stroke-width:32;stroke-linecap:round;stroke-linejoin:round;stroke-miterlimit:4;stroke-dasharray:none" transform="matrix(0.25,0,0,0.25,1.114624e-7,7.640625e-6)" />
    <polygon points="169.103,644.134 0,829.333 209.023,959.111 " id="polygon857" style="fill:none;fill-opacity:0.25;stroke:#ffffff;stroke-width:32;stroke-linecap:round;stroke-linejoin:round;stroke-miterlimit:4;stroke-dasharray:none" transform="matrix(0.25,0,0,0.25,1.114624e-7,7.640625e-6)" />
    <polygon points="169.103,644.134 442.718,764.444 378.126,514.356 " id="polygon859" style="fill:none;fill-opacity:0.25;stroke:#ffffff;stroke-width:32;stroke-linecap:round;stroke-linejoin:round;stroke-miterlimit:4;stroke-dasharray:none" transform="matrix(0.25,0,0,0.25,1.114624e-7,7.640625e-6)" />
    <polygon points="209.023,959.111 442.718,1024 442.718,764.444 " id="polygon861" style="fill:none;fill-opacity:0.25;stroke:#ffffff;stroke-width:32;stroke-linecap:round;stroke-linejoin:round;stroke-miterlimit:4;stroke-dasharray:none" transform="matrix(0.25,0,0,0.25,1.114624e-7,7.640625e-6)" />
    <polygon points="512,98.233 256,257.178 512,416.123 " id="polygon863" style="fill:none;fill-opacity:0.25;stroke:#ffffff;stroke-width:32;stroke-linecap:round;stroke-linejoin:round;stroke-miterlimit:4;stroke-dasharray:none" transform="matrix(0.25,0,0,0.25,1.114624e-7,7.640625e-6)" />
    <polygon points="512,98.233 288.595,0 256,257.178 " id="polygon865" style="fill:none;fill-opacity:0.25;stroke:#ffffff;stroke-width:32;stroke-linecap:round;stroke-linejoin:round;stroke-miterlimit:4;stroke-dasharray:none" transform="matrix(0.25,0,0,0.25,1.114624e-7,7.640625e-6)" />
    <polygon points="885.436,1024 885.436,764.444 651.741,959.111 " id="polygon867" style="fill:none;fill-opacity:0.25;stroke:#ffffff;stroke-width:32;stroke-linecap:round;stroke-linejoin:round;stroke-miterlimit:4;stroke-dasharray:none" transform="matrix(0.25,0,0,0.25,1.114624e-7,7.640625e-6)" />
    <polygon points="800.594,0 768,257.178 1024,98.233 " id="polygon869" style="fill:none;fill-opacity:0.25;stroke:#ffffff;stroke-width:32;stroke-linecap:round;stroke-linejoin:round;stroke-miterlimit:4;stroke-dasharray:none" transform="matrix(0.25,0,0,0.25,1.114624e-7,7.640625e-6)" />
    <polygon points="768,416.123 512,257.178 544.594,514.356 " id="polygon871" style="fill:none;fill-opacity:0.25;stroke:#ffffff;stroke-width:32;stroke-linecap:round;stroke-linejoin:round;stroke-miterlimit:4;stroke-dasharray:none" transform="matrix(0.25,0,0,0.25,1.114624e-7,7.640625e-6)" />
    <polygon points="768,416.123 768,98.233 512,257.178 " id="polygon873" style="fill:none;fill-opacity:0.25;stroke:#ffffff;stroke-width:32;stroke-linecap:round;stroke-linejoin:round;stroke-miterlimit:4;stroke-dasharray:none" transform="matrix(0.25,0,0,0.25,1.114624e-7,7.640625e-6)" />
    <polygon points="651.741,959.111 611.821,644.134 442.718,829.333 " id="polygon875" style="fill:none;fill-opacity:0.25;stroke:#ffffff;stroke-width:32;stroke-linecap:round;stroke-linejoin:round;stroke-miterlimit:4;stroke-dasharray:none" transform="matrix(0.25,0,0,0.25,1.114624e-7,7.640625e-6)" />
    <polygon points="651.741,959.111 885.436,764.444 611.821,644.134 " id="polygon877" style="fill:none;fill-opacity:0.25;stroke:#ffffff;stroke-width:32;stroke-linecap:round;stroke-linejoin:round;stroke-miterlimit:4;stroke-dasharray:none" transform="matrix(0.25,0,0,0.25,1.114624e-7,7.640625e-6)" />
    <polygon points="768,257.178 800.594,514.356 1024,416.123 " id="polygon879" style="fill:none;fill-opacity:0.25;stroke:#ffffff;stroke-width:32;stroke-linecap:round;stroke-linejoin:round;stroke-miterlimit:4;stroke-dasharray:none" transform="matrix(0.25,0,0,0.25,1.114624e-7,7.640625e-6)" />
    <polygon points="768,98.233 544.594,0 512,257.178 " id="polygon881" style="fill:none;fill-opacity:0.25;stroke:#ffffff;stroke-width:32;stroke-linecap:round;stroke-linejoin:round;stroke-miterlimit:4;stroke-dasharray:none" transform="matrix(0.25,0,0,0.25,1.114624e-7,7.640625e-6)" />
    <polygon points="512,416.123 256,257.178 288.594,514.356 " id="polygon883" style="fill:none;fill-opacity:0.25;stroke:#ffffff;stroke-width:32;stroke-linecap:round;stroke-linejoin:round;stroke-miterlimit:4;stroke-dasharray:none" transform="matrix(0.25,0,0,0.25,1.114624e-7,7.640625e-6)" />
    <polygon points="32.594,514.356 256,416.123 0,257.178 " id="polygon885" style="fill:none;fill-opacity:0.25;stroke:#ffffff;stroke-width:32;stroke-linecap:round;stroke-linejoin:round;stroke-miterlimit:4;stroke-dasharray:none" transform="matrix(0.25,0,0,0.25,1.114624e-7,7.640625e-6)" />
    <polygon points="885.436,764.444 820.844,514.356 611.821,644.134 " id="polygon887" style="fill:none;fill-opacity:0.25;stroke:#ffffff;stroke-width:32;stroke-linecap:round;stroke-linejoin:round;stroke-miterlimit:4;stroke-dasharray:none" transform="matrix(0.25,0,0,0.25,1.114624e-7,7.640625e-6)" />
    <polygon points="1024,98.233 768,257.178 1024,416.123 " id="polygon889" style="fill:none;fill-opacity:0.25;stroke:#ffffff;stroke-width:32;stroke-linecap:round;stroke-linejoin:round;stroke-miterlimit:4;stroke-dasharray:none" transform="matrix(0.25,0,0,0.25,1.114624e-7,7.640625e-6)" />
    <polygon points="32.594,0 0,257.178 256,98.233 " id="polygon891" style="fill:none;fill-opacity:0.25;stroke:#ffffff;stroke-width:32;stroke-linecap:round;stroke-linejoin:round;stroke-miterlimit:4;stroke-dasharray:none" transform="matrix(0.25,0,0,0.25,1.114624e-7,7.640625e-6)" />
    <polygon points="256,416.123 256,98.233 0,257.178 " id="polygon893" style="fill:none;fill-opacity:0.25;stroke:#ffffff;stroke-width:32;stroke-linecap:round;stroke-linejoin:round;stroke-miterlimit:4;stroke-dasharray:none" transform="matrix(0.25,0,0,0.25,1.114624e-7,7.640625e-6)" />
  </g>
</svg>
