<?xml version="1.0" encoding="UTF-8" standalone="no"?>
<svg xmlns:dc="http://purl.org/dc/elements/1.1/" xmlns:cc="http://creativecommons.org/ns#" xmlns:rdf="http://www.w3.org/1999/02/22-rdf-syntax-ns#" xmlns:svg="http://www.w3.org/2000/svg" xmlns="http://www.w3.org/2000/svg" id="svg864" version="1.1" viewBox="0 0 30 24.000001" height="24" width="30">
  <defs id="defs858" />
  <metadata id="metadata861">
    <rdf:RDF>
      <cc:Work rdf:about="">
        <dc:format>image/svg+xml</dc:format>
        <dc:type rdf:resource="http://purl.org/dc/dcmitype/StillImage" />
        <dc:title></dc:title>
      </cc:Work>
    </rdf:RDF>
  </metadata>
  <path id="outline" d="M 6.78171,0 C 5.65497,0 4.66601,0.11457 3.81894,0.33775 C 2.97188,0.56093 2.26649,0.89224 1.70438,1.329 C 1.14232,1.76577 0.71549,2.3067 0.43008,2.96178 C 0.14461,3.61686 0,4.38608 0,5.27804 C 0,5.70558 0.08718,6.07449 0.24092,6.4032 C 0.39465,6.73191 0.61518,7.02118 0.88604,7.28853 C 1.42777,7.82319 2.17239,8.25675 2.93091,8.67549 C 3.68938,9.09423 4.46052,9.49755 5.0594,10.00849 C 5.35885,10.263956 5.61583,10.552436 5.7981,10.881836 C 5.98032,11.211236 6.0888,11.580226 6.0888,11.998996 C 6.0888,12.417766 5.98032,12.788756 5.7981,13.118156 C 5.61583,13.447556 5.35885,13.736036 5.0594,13.991506 C 4.46052,14.502446 3.68938,14.905766 2.93091,15.324506 C 2.17239,15.743246 1.42777,16.176816 0.88604,16.711466 C 0.61518,16.978816 0.39465,17.268096 0.24092,17.596796 C 0.08718,17.925506 0,18.292406 0,18.719956 C 0,19.611886 0.14461,20.381116 0.43008,21.036216 C 0.71549,21.691286 1.14232,22.232246 1.70438,22.668996 C 2.26649,23.105786 2.97188,23.439076 3.81894,23.662246 C 4.66601,23.885456 5.65497,23.999996 6.78171,23.999996 C 7.88397,23.999996 8.69876,23.712216 9.36616,23.272536 C 10.03352,22.832896 10.55352,22.241686 11.06457,21.633766 C 11.32008,21.329816 11.57141,21.020246 11.83513,20.728446 C 12.09881,20.436656 12.37468,20.161306 12.68135,19.921056 C 12.98798,19.680836 13.32805,19.478026 13.71076,19.335496 C 14.09347,19.192966 14.51794,19.111666 14.999,19.111666 C 15.48008,19.111666 15.90653,19.192966 16.28924,19.335496 C 16.67195,19.478026 17.01201,19.680836 17.31864,19.921056 C 17.6253,20.161306 17.90118,20.436656 18.16486,20.728446 C 18.42858,21.020246 18.67991,21.329816 18.93542,21.633766 C 19.44648,22.241686 19.96646,22.832896 20.63383,23.272536 C 21.30123,23.712216 22.11606,23.999996 23.21829,23.999996 C 24.34506,23.999996 25.334,23.885456 26.18106,23.662246 C 27.02812,23.439076 27.73351,23.105786 28.29561,22.668996 C 28.85767,22.232246 29.2825,21.691286 29.56793,21.036216 C 29.85338,20.381116 30,19.611886 30,18.719956 C 30,18.292406 29.91281,17.925506 29.75907,17.596796 C 29.60534,17.268096 29.3848,16.978816 29.11396,16.711466 C 28.57221,16.176816 27.82761,15.743246 27.06909,15.324506 C 26.31061,14.905766 25.53951,14.502446 24.9406,13.991506 C 24.64113,13.736036 24.38416,13.447556 24.2019,13.118156 C 24.01967,12.788756 23.91119,12.417766 23.91119,11.998996 C 23.91119,11.580226 24.01967,11.211236 24.2019,10.881836 C 24.38416,10.552436 24.64113,10.263956 24.9406,10.00849 C 25.53951,9.49755 26.31061,9.09423 27.06909,8.67549 C 27.82761,8.25675 28.57221,7.82319 29.11396,7.28853 C 29.3848,7.02118 29.60534,6.73191 29.75907,6.4032 C 29.91281,6.07449 30,5.70558 30,5.27804 C 30,4.38608 29.85338,3.61686 29.56793,2.96178 C 29.2825,2.3067 28.85767,1.76577 28.29561,1.329 C 27.73351,0.89224 27.02812,0.56093 26.18106,0.33775 C 25.334,0.11457 24.34506,0 23.21829,0 C 22.11606,0 21.30123,0.28779 20.63383,0.72745 C 19.96646,1.16712 19.44648,1.75828 18.93542,2.36623 C 18.67991,2.67018 18.42858,2.97776 18.16486,3.26955 C 17.90118,3.56134 17.6253,3.83668 17.31864,4.07694 C 17.01201,4.31717 16.67195,4.51999 16.28924,4.6625 C 15.90653,4.80502 15.48008,4.88833 14.999,4.88833 C 14.51794,4.88833 14.09347,4.80502 13.71076,4.6625 C 13.32805,4.51999 12.98798,4.31717 12.68135,4.07694 C 12.37468,3.83668 12.09881,3.56134 11.83513,3.26955 C 11.57141,2.97776 11.32008,2.67018 11.06457,2.36623 C 10.55352,1.75828 10.03352,1.16712 9.36616,0.72745 C 8.69876,0.28779 7.88397,0 6.78171,0 Z" style="opacity:1;fill:#0000ff;fill-opacity:1;stroke:none;stroke-width:0.06098995;stroke-linecap:round;stroke-linejoin:round;stroke-miterlimit:4;stroke-dasharray:none;stroke-opacity:1" />
  <path id="islands" d="M 15,8.72446 C 16.05829,8.72446 17.02823,9.08562 17.7318,9.67574 C 18.43536,10.265866 18.8727,11.084576 18.8727,11.999996 C 18.8727,12.915406 18.43536,13.734126 17.7318,14.324256 C 17.02823,14.914386 16.05829,15.275536 15,15.275536 C 13.94172,15.275536 12.97376,14.914386 12.27019,14.324256 C 11.56662,13.734126 11.1273,12.915406 11.1273,11.999996 C 11.1273,11.084576 11.56662,10.265866 12.27019,9.67574 C 12.97376,9.08562 13.94172,8.72446 15,8.72446 Z" style="opacity:1;fill:#00ff00;fill-opacity:1;stroke:none;stroke-width:0.06098995;stroke-linecap:round;stroke-linejoin:round;stroke-miterlimit:4;stroke-dasharray:none;stroke-opacity:1" />
</svg>
