<?xml version="1.0" encoding="UTF-8" standalone="no"?>
<svg xmlns:dc="http://purl.org/dc/elements/1.1/" xmlns:cc="http://creativecommons.org/ns#" xmlns:rdf="http://www.w3.org/1999/02/22-rdf-syntax-ns#" xmlns:svg="http://www.w3.org/2000/svg" xmlns="http://www.w3.org/2000/svg" xmlns:sodipodi="http://sodipodi.sourceforge.net/DTD/sodipodi-0.dtd" xmlns:inkscape="http://www.inkscape.org/namespaces/inkscape" width="256" height="256" viewBox="0 0 256 256" version="1.1" id="svg150" sodipodi:docname="islandtex.svg" inkscape:version="0.92.3 (2405546, 2018-03-11)" inkscape:export-filename="/home/mirko/development/acechase_sandbox/levels/hackerland2/islandtex.png" inkscape:export-xdpi="96" inkscape:export-ydpi="96">
  <metadata id="metadata156">
    <rdf:RDF>
      <cc:Work rdf:about="">
        <dc:format>image/svg+xml</dc:format>
        <dc:type rdf:resource="http://purl.org/dc/dcmitype/StillImage" />
        <dc:title></dc:title>
      </cc:Work>
    </rdf:RDF>
  </metadata>
  <defs id="defs154">
    <filter inkscape:collect="always" style="color-interpolation-filters:sRGB" id="filter3339" x="-0.041909098" width="1.0838182" y="-0.044572955" height="1.0891459">
      <feGaussianBlur inkscape:collect="always" stdDeviation="2.99087" id="feGaussianBlur3341" />
    </filter>
    <filter inkscape:collect="always" style="color-interpolation-filters:sRGB" id="filter3343" x="-0.059368354" width="1.1187367" y="-0.067164128" height="1.1343283">
      <feGaussianBlur inkscape:collect="always" stdDeviation="2.99087" id="feGaussianBlur3345" />
    </filter>
    <filter inkscape:collect="always" style="color-interpolation-filters:sRGB" id="filter3347" x="-0.1008541" width="1.2017082" y="-0.12919434" height="1.2583887">
      <feGaussianBlur inkscape:collect="always" stdDeviation="2.99087" id="feGaussianBlur3349" />
    </filter>
  </defs>
  <sodipodi:namedview pagecolor="#ffffff" bordercolor="#666666" borderopacity="1" objecttolerance="10" gridtolerance="10" guidetolerance="10" inkscape:pageopacity="0" inkscape:pageshadow="2" inkscape:window-width="1920" inkscape:window-height="1027" id="namedview152" showgrid="false" inkscape:object-paths="false" inkscape:snap-bbox="true" inkscape:bbox-nodes="true" inkscape:snap-page="true" inkscape:zoom="2.6074563" inkscape:cx="92.561969" inkscape:cy="111.17262" inkscape:window-x="0" inkscape:window-y="0" inkscape:window-maximized="1" inkscape:current-layer="svg150" />
  <desc id="desc2">'hackerland2.blend', CUoutline.004, (Blender 2.79 (sub 0))</desc>
  <rect style="opacity:1;fill:#000000;fill-opacity:1;stroke:none;stroke-width:0.12500001;stroke-linecap:round;stroke-linejoin:round;stroke-miterlimit:4;stroke-dasharray:none;stroke-dashoffset:0;stroke-opacity:1" id="rect964" width="256" height="256.00003" x="0" y="-3.0517582e-05" />
  <path sodipodi:nodetypes="sssssssssssssssssssssssss" inkscape:connector-curvature="0" id="path819" d="M 127.81302,157.27724 C 131.66721,156.39899 135.43007,155.02985 138.98702,153.30524 C 142.54906,151.57816 145.9589,149.46818 149.04027,146.98299 C 151.79252,144.76323 154.29612,142.19879 156.46077,139.40299 C 158.31713,137.00536 159.92463,134.38322 161.16052,131.61424 C 162.1499,129.39754 162.89694,127.0455 163.28952,124.64998 C 163.5926,122.80058 163.69155,120.88817 163.44802,119.02998 C 163.22739,117.34655 162.7383,115.67506 161.99727,114.14748 C 161.25627,112.61998 160.24519,111.20232 159.06077,109.98598 C 157.75302,108.64299 156.19448,107.52932 154.55377,106.62273 C 152.42922,105.4488 150.11392,104.59489 147.76077,103.99948 C 144.82192,103.25587 141.77108,102.87595 138.73977,102.84648 C 135.20269,102.8121 131.63802,103.19964 128.18952,103.98698 C 124.33065,104.86802 120.56137,106.23414 116.99976,107.96098 C 113.44321,109.68538 110.04052,111.79507 106.96376,114.27623 C 104.21647,116.49171 101.71151,119.04618 99.554012,121.83923 C 97.699202,124.24043 96.109199,126.87477 94.872011,129.64523 C 93.877544,131.87217 93.110954,134.22974 92.711761,136.63574 C 92.404434,138.48804 92.305081,140.40436 92.547761,142.26624 C 92.765856,143.93949 93.249916,145.6017 93.987261,147.11949 C 94.724659,148.63738 95.733296,150.04433 96.912762,151.25124 C 98.226002,152.59504 99.792527,153.70461 101.43701,154.61349 C 103.57175,155.79333 105.89282,156.66543 108.25726,157.26424 C 111.19897,158.00924 114.25507,158.37415 117.28951,158.40274 C 120.8172,158.43597 124.37335,158.06103 127.81302,157.27724 Z" style="fill:none;fill-opacity:0.25;stroke:#7b7b7b;stroke-width:12;stroke-miterlimit:4;stroke-dasharray:none;filter:url(#filter3347);stroke-opacity:1" />
  <path style="fill:none;fill-opacity:0.25;stroke:#999999;stroke-width:5;stroke-miterlimit:4;stroke-dasharray:none" d="M 127.81302,157.27724 C 131.66721,156.39899 135.43007,155.02985 138.98702,153.30524 C 142.54906,151.57816 145.9589,149.46818 149.04027,146.98299 C 151.79252,144.76323 154.29612,142.19879 156.46077,139.40299 C 158.31713,137.00536 159.92463,134.38322 161.16052,131.61424 C 162.1499,129.39754 162.89694,127.0455 163.28952,124.64998 C 163.5926,122.80058 163.69155,120.88817 163.44802,119.02998 C 163.22739,117.34655 162.7383,115.67506 161.99727,114.14748 C 161.25627,112.61998 160.24519,111.20232 159.06077,109.98598 C 157.75302,108.64299 156.19448,107.52932 154.55377,106.62273 C 152.42922,105.4488 150.11392,104.59489 147.76077,103.99948 C 144.82192,103.25587 141.77108,102.87595 138.73977,102.84648 C 135.20269,102.8121 131.63802,103.19964 128.18952,103.98698 C 124.33065,104.86802 120.56137,106.23414 116.99976,107.96098 C 113.44321,109.68538 110.04052,111.79507 106.96376,114.27623 C 104.21647,116.49171 101.71151,119.04618 99.554012,121.83923 C 97.699202,124.24043 96.109199,126.87477 94.872011,129.64523 C 93.877544,131.87217 93.110954,134.22974 92.711761,136.63574 C 92.404434,138.48804 92.305081,140.40436 92.547761,142.26624 C 92.765856,143.93949 93.249916,145.6017 93.987261,147.11949 C 94.724659,148.63738 95.733296,150.04433 96.912762,151.25124 C 98.226002,152.59504 99.792527,153.70461 101.43701,154.61349 C 103.57175,155.79333 105.89282,156.66543 108.25726,157.26424 C 111.19897,158.00924 114.25507,158.37415 117.28951,158.40274 C 120.8172,158.43597 124.37335,158.06103 127.81302,157.27724 Z" id="polygon112" inkscape:connector-curvature="0" sodipodi:nodetypes="sssssssssssssssssssssssss" />
  <path id="path822" d="M 139.49611,77.232401 C 144.60759,77.407771 149.73887,78.212046 154.64894,79.643534 C 159.07599,80.934202 163.39042,82.770262 167.33889,85.152325 C 170.95012,87.33094 174.32857,89.98823 177.20803,93.069806 C 180.04904,96.110238 182.52684,99.569661 184.34231,103.31395 C 186.15763,107.05794 187.33921,111.1455 187.96682,115.25877 C 188.60303,119.42843 188.59677,123.7271 188.07082,127.91209 C 187.49589,132.48686 186.26629,137.011 184.53811,141.28563 C 182.62074,146.02822 180.07329,150.55576 177.04445,154.67821 C 173.73064,159.18854 169.83565,163.32772 165.51174,166.88134 C 160.8619,170.70282 155.65064,173.88063 150.23488,176.50634 C 144.82346,179.12994 139.10561,181.252 133.23,182.53417 C 127.76882,183.7259 122.11373,184.21805 116.52736,184.02538 C 111.41493,183.84906 106.28322,183.04218 101.37208,181.61083 C 96.938467,180.31865 92.617386,178.48162 88.661631,176.09862 C 85.04595,173.9205 81.661027,171.26562 78.776864,168.18358 C 75.936842,165.14871 73.458506,161.69505 71.645029,157.95507 C 69.831691,154.21537 68.654773,150.13099 68.030771,146.02196 C 67.396983,141.8485 67.408851,137.54639 67.937996,133.35838 C 68.516931,128.77629 69.750981,124.24553 71.482431,119.96385 C 73.399849,115.22229 75.943994,110.69425 78.971202,106.57176 C 82.279982,102.06583 86.169,97.930021 90.487316,94.379863 C 95.132854,90.560693 100.34015,87.38556 105.75148,84.7617 C 111.16704,82.135782 116.88943,80.012259 122.76954,78.728494 C 128.2385,77.534494 133.90162,77.040459 139.49611,77.232401 Z" style="fill:none;stroke:#7b7b7b;stroke-width:12;stroke-miterlimit:4;stroke-dasharray:none;filter:url(#filter3343);stroke-opacity:1" />
  <path style="fill:none;stroke:#999999;stroke-width:5.00000048;stroke-miterlimit:4;stroke-dasharray:none" d="M 139.49611,77.232401 C 144.60759,77.407771 149.73887,78.212046 154.64894,79.643534 C 159.07599,80.934202 163.39042,82.770262 167.33889,85.152325 C 170.95012,87.33094 174.32857,89.98823 177.20803,93.069806 C 180.04904,96.110238 182.52684,99.569661 184.34231,103.31395 C 186.15763,107.05794 187.33921,111.1455 187.96682,115.25877 C 188.60303,119.42843 188.59677,123.7271 188.07082,127.91209 C 187.49589,132.48686 186.26629,137.011 184.53811,141.28563 C 182.62074,146.02822 180.07329,150.55576 177.04445,154.67821 C 173.73064,159.18854 169.83565,163.32772 165.51174,166.88134 C 160.8619,170.70282 155.65064,173.88063 150.23488,176.50634 C 144.82346,179.12994 139.10561,181.252 133.23,182.53417 C 127.76882,183.7259 122.11373,184.21805 116.52736,184.02538 C 111.41493,183.84906 106.28322,183.04218 101.37208,181.61083 C 96.938467,180.31865 92.617386,178.48162 88.661631,176.09862 C 85.04595,173.9205 81.661027,171.26562 78.776864,168.18358 C 75.936842,165.14871 73.458506,161.69505 71.645029,157.95507 C 69.831691,154.21537 68.654773,150.13099 68.030771,146.02196 C 67.396983,141.8485 67.408851,137.54639 67.937996,133.35838 C 68.516931,128.77629 69.750981,124.24553 71.482431,119.96385 C 73.399849,115.22229 75.943994,110.69425 78.971202,106.57176 C 82.279982,102.06583 86.169,97.930021 90.487316,94.379863 C 95.132854,90.560693 100.34015,87.38556 105.75148,84.7617 C 111.16704,82.135782 116.88943,80.012259 122.76954,78.728494 C 128.2385,77.534494 133.90162,77.040459 139.49611,77.232401 Z" id="path990" />
  <path d="M 129.47461,50.234375 C 125.50862,50.444451 121.56592,50.92209 117.70312,51.681641 C 109.47687,53.299191 101.39944,56.266449 93.736328,59.982422 C 86.077344,63.69639 78.747444,68.197962 72.386719,73.652344 C 66.41653,78.771838 61.140007,84.853734 56.712891,91.423828 C 52.621455,97.495752 49.307937,104.18732 46.884766,111.11914 C 44.6358,117.5526 43.193038,124.33938 42.626953,131.13281 C 42.09027,137.57339 42.37461,144.14371 43.46875,150.51172 C 44.567898,156.9089 46.324615,163.21972 49.078125,168.89844 C 51.831769,174.57745 55.695329,179.86313 60.037109,184.6875 C 64.35908,189.48987 69.345437,193.78242 74.734375,197.34961 C 80.418139,201.11196 86.637531,204.18158 93.082031,206.40039 C 100.02588,208.79114 107.332,210.33472 114.63281,210.88281 C 122.53232,211.47586 130.57616,211.09685 138.29297,209.58008 C 146.51445,207.96412 154.58862,204.99823 162.24805,201.28516 C 169.91156,197.57012 177.24465,193.06797 183.60938,187.61133 C 189.58565,182.48771 194.86771,176.40176 199.29883,169.82617 C 203.39192,163.75221 206.70824,157.05888 209.13086,150.125 C 211.37733,143.69524 212.8178,136.91368 213.38086,130.125 C 213.91465,123.68906 213.62513,117.11847 212.5293,110.75391 C 211.42793,104.35726 209.66819,98.04947 206.91406,92.369141 C 204.15985,86.688659 200.29892,81.400382 195.95898,76.574219 C 191.64124,71.772728 186.66164,67.479571 181.27734,63.912109 C 175.59809,60.149224 169.38054,57.077742 162.94141,54.859375 C 155.99717,52.466993 148.69029,50.925198 141.38672,50.376953 C 137.43255,50.080132 133.44085,50.024285 129.47461,50.234375 Z" id="path824" style="fill:none;fill-opacity:1;stroke:#7b7b7b;stroke-width:12;stroke-miterlimit:4;stroke-dasharray:none;stroke-opacity:1;filter:url(#filter3339)" inkscape:original="M 129.30273 46.992188 C 125.19168 47.209948 121.09744 47.703429 117.07617 48.494141 C 108.50775 50.178971 100.17773 53.250354 92.320312 57.060547 C 84.467032 60.868732 76.898955 65.506057 70.273438 71.1875 C 64.056921 76.518223 58.595654 82.818147 54.019531 89.609375 C 49.764753 95.923708 46.330932 102.85931 43.818359 110.04688 C 41.477463 116.74332 39.9797 123.79396 39.390625 130.86328 C 38.83094 137.5799 39.126266 144.41994 40.267578 151.0625 C 41.403908 157.67608 43.228482 164.27635 46.15625 170.31445 C 49.083943 176.35241 53.134179 181.87157 57.623047 186.85938 C 62.131515 191.86898 67.321498 196.33851 72.941406 200.05859 C 78.856476 203.97405 85.318215 207.16145 92.025391 209.4707 C 99.224897 211.94947 106.79771 213.55107 114.39062 214.12109 C 122.55633 214.73412 130.88497 214.34688 138.91992 212.76758 C 147.48377 211.08433 155.81051 208.01421 163.66406 204.20703 C 171.52184 200.39782 179.09313 195.75983 185.72266 190.07617 C 191.94514 184.74148 197.41188 178.4376 201.99219 171.64062 C 206.24855 165.32438 209.68506 158.38561 212.19727 151.19531 C 214.53558 144.50269 216.03121 137.45767 216.61719 130.39258 C 217.17395 123.67966 216.87343 116.84141 215.73047 110.20312 C 214.59177 103.58964 212.76371 96.991586 209.83594 90.953125 C 206.90817 84.914692 202.86026 79.39228 198.37305 74.402344 C 193.86905 69.393729 188.68551 64.925528 183.07031 61.205078 C 177.16028 57.289285 170.70293 54.098309 164 51.789062 C 156.79904 49.308236 149.22386 47.708789 141.62891 47.138672 C 137.54214 46.831897 133.41379 46.774427 129.30273 46.992188 z " inkscape:radius="-3.2475629" sodipodi:type="inkscape:offset" />
  <path sodipodi:type="inkscape:offset" inkscape:radius="-3.2475629" inkscape:original="M 129.30273 46.992188 C 125.19168 47.209948 121.09744 47.703429 117.07617 48.494141 C 108.50775 50.178971 100.17773 53.250354 92.320312 57.060547 C 84.467032 60.868732 76.898955 65.506057 70.273438 71.1875 C 64.056921 76.518223 58.595654 82.818147 54.019531 89.609375 C 49.764753 95.923708 46.330932 102.85931 43.818359 110.04688 C 41.477463 116.74332 39.9797 123.79396 39.390625 130.86328 C 38.83094 137.5799 39.126266 144.41994 40.267578 151.0625 C 41.403908 157.67608 43.228482 164.27635 46.15625 170.31445 C 49.083943 176.35241 53.134179 181.87157 57.623047 186.85938 C 62.131515 191.86898 67.321498 196.33851 72.941406 200.05859 C 78.856476 203.97405 85.318215 207.16145 92.025391 209.4707 C 99.224897 211.94947 106.79771 213.55107 114.39062 214.12109 C 122.55633 214.73412 130.88497 214.34688 138.91992 212.76758 C 147.48377 211.08433 155.81051 208.01421 163.66406 204.20703 C 171.52184 200.39782 179.09313 195.75983 185.72266 190.07617 C 191.94514 184.74148 197.41188 178.4376 201.99219 171.64062 C 206.24855 165.32438 209.68506 158.38561 212.19727 151.19531 C 214.53558 144.50269 216.03121 137.45767 216.61719 130.39258 C 217.17395 123.67966 216.87343 116.84141 215.73047 110.20312 C 214.59177 103.58964 212.76371 96.991586 209.83594 90.953125 C 206.90817 84.914692 202.86026 79.39228 198.37305 74.402344 C 193.86905 69.393729 188.68551 64.925528 183.07031 61.205078 C 177.16028 57.289285 170.70293 54.098309 164 51.789062 C 156.79904 49.308236 149.22386 47.708789 141.62891 47.138672 C 137.54214 46.831897 133.41379 46.774427 129.30273 46.992188 z " style="fill:none;fill-opacity:1;stroke:#999999;stroke-width:5.00000048;stroke-miterlimit:4;stroke-dasharray:none;stroke-opacity:1" id="path821" d="M 129.47461,50.234375 C 125.50862,50.444451 121.56592,50.92209 117.70312,51.681641 C 109.47687,53.299191 101.39944,56.266449 93.736328,59.982422 C 86.077344,63.69639 78.747444,68.197962 72.386719,73.652344 C 66.41653,78.771838 61.140007,84.853734 56.712891,91.423828 C 52.621455,97.495752 49.307937,104.18732 46.884766,111.11914 C 44.6358,117.5526 43.193038,124.33938 42.626953,131.13281 C 42.09027,137.57339 42.37461,144.14371 43.46875,150.51172 C 44.567898,156.9089 46.324615,163.21972 49.078125,168.89844 C 51.831769,174.57745 55.695329,179.86313 60.037109,184.6875 C 64.35908,189.48987 69.345437,193.78242 74.734375,197.34961 C 80.418139,201.11196 86.637531,204.18158 93.082031,206.40039 C 100.02588,208.79114 107.332,210.33472 114.63281,210.88281 C 122.53232,211.47586 130.57616,211.09685 138.29297,209.58008 C 146.51445,207.96412 154.58862,204.99823 162.24805,201.28516 C 169.91156,197.57012 177.24465,193.06797 183.60938,187.61133 C 189.58565,182.48771 194.86771,176.40176 199.29883,169.82617 C 203.39192,163.75221 206.70824,157.05888 209.13086,150.125 C 211.37733,143.69524 212.8178,136.91368 213.38086,130.125 C 213.91465,123.68906 213.62513,117.11847 212.5293,110.75391 C 211.42793,104.35726 209.66819,98.04947 206.91406,92.369141 C 204.15985,86.688659 200.29892,81.400382 195.95898,76.574219 C 191.64124,71.772728 186.66164,67.479571 181.27734,63.912109 C 175.59809,60.149224 169.38054,57.077742 162.94141,54.859375 C 155.99717,52.466993 148.69029,50.925198 141.38672,50.376953 C 137.43255,50.080132 133.44085,50.024285 129.47461,50.234375 Z" />
</svg>
