<?xml version="1.0" encoding="UTF-8" standalone="no"?>
<!-- Created with Inkscape (http://www.inkscape.org/) -->

<svg
   xmlns:dc="http://purl.org/dc/elements/1.1/"
   xmlns:cc="http://creativecommons.org/ns#"
   xmlns:rdf="http://www.w3.org/1999/02/22-rdf-syntax-ns#"
   xmlns:svg="http://www.w3.org/2000/svg"
   xmlns="http://www.w3.org/2000/svg"
   xmlns:sodipodi="http://sodipodi.sourceforge.net/DTD/sodipodi-0.dtd"
   xmlns:inkscape="http://www.inkscape.org/namespaces/inkscape"
   width="210mm"
   height="297mm"
   viewBox="0 0 210 297"
   version="1.1"
   id="svg8"
   inkscape:version="0.92.3 (2405546, 2018-03-11)"
   sodipodi:docname="airconsolecontroller.svg">
  <defs
     id="defs2" />
  <sodipodi:namedview
     id="base"
     pagecolor="#ffffff"
     bordercolor="#666666"
     borderopacity="1.0"
     inkscape:pageopacity="0.0"
     inkscape:pageshadow="2"
     inkscape:zoom="1.2875114"
     inkscape:cx="440.36963"
     inkscape:cy="955.43668"
     inkscape:document-units="mm"
     inkscape:current-layer="layer1"
     showgrid="false"
     inkscape:window-width="1920"
     inkscape:window-height="1150"
     inkscape:window-x="0"
     inkscape:window-y="0"
     inkscape:window-maximized="1" />
  <metadata
     id="metadata5">
    <rdf:RDF>
      <cc:Work
         rdf:about="">
        <dc:format>image/svg+xml</dc:format>
        <dc:type
           rdf:resource="http://purl.org/dc/dcmitype/StillImage" />
        <dc:title />
      </cc:Work>
    </rdf:RDF>
  </metadata>
  <g
     inkscape:label="Ebene 1"
     inkscape:groupmode="layer"
     id="layer1">
    <path
       style="opacity:1;vector-effect:none;fill:var(--main-color);fill-opacity:1;fill-rule:evenodd;stroke:#e6e6e6;stroke-width:0.278;stroke-linecap:round;stroke-linejoin:round;stroke-miterlimit:4;stroke-dasharray:none;stroke-dashoffset:0;stroke-opacity:1"
       d="M 20.2,1.02 L 1.75,33.2 H 98.2 L 79.8,1.02 Z"
       id="path1817" />
    <g
       aria-label="PAUSE"
       style="font-style:italic;font-variant:normal;font-weight:500;font-stretch:normal;font-size:4.93888855px;line-height:1.25;font-family:'URW Chancery L';-inkscape-font-specification:'URW Chancery L Medium Italic';letter-spacing:0px;word-spacing:0px;fill:#ffffff;fill-opacity:1;stroke:none;stroke-width:0.26458332"
       id="text19">
      <path
         style="font-style:italic;font-variant:normal;font-weight:normal;font-stretch:normal;font-size:14.11111069px;font-family:Ethnocentric;-inkscape-font-specification:'Ethnocentric Italic';fill:#ffffff;stroke-width:0.99999994"
         d="M 139.53516 54.029297 C 137.79294 54.029297 136.28195 54.438083 135.00195 55.255859 C 133.72195 56.073638 132.61976 56.998186 131.69531 58.029297 L 103.10938 90.294922 L 116.17578 90.294922 L 137.08203 66.615234 L 141.83008 76.056641 C 142.25675 76.909975 142.71902 77.834523 143.2168 78.830078 C 143.71458 79.790078 144.15772 80.588516 144.54883 81.228516 C 143.69549 81.15741 142.70028 81.123047 141.5625 81.123047 L 138.20312 81.123047 L 129.29688 81.123047 L 120.97656 90.294922 L 162.46875 90.294922 L 145.88281 58.029297 C 145.27837 56.89152 144.47798 55.949793 143.48242 55.203125 C 142.52242 54.420904 141.20627 54.029297 139.53516 54.029297 z M 75.105469 54.615234 L 66.144531 63.896484 L 96.865234 63.896484 C 98.429679 63.896484 99.602542 64.215469 100.38477 64.855469 C 101.20254 65.459913 101.61133 66.277483 101.61133 67.308594 C 101.61133 68.695262 101.06121 69.833769 99.958984 70.722656 C 98.856761 71.611546 97.345781 72.056641 95.425781 72.056641 L 64.705078 72.056641 L 61.505859 90.294922 L 72.492188 90.294922 L 74.091797 81.175781 L 92.757812 81.175781 C 95.851144 81.175781 98.643923 80.803306 101.13281 80.056641 C 103.6217 79.309972 105.71912 78.278446 107.42578 76.962891 C 109.168 75.61178 110.50134 74.010999 111.42578 72.162109 C 112.38578 70.313222 112.86523 68.286476 112.86523 66.082031 C 112.86523 64.375363 112.52712 62.830025 111.85156 61.443359 C 111.17601 60.021138 110.18079 58.811962 108.86523 57.816406 C 107.58523 56.785293 105.98445 56.002082 104.06445 55.46875 C 102.18001 54.899861 99.994746 54.615234 97.505859 54.615234 L 75.105469 54.615234 z M 168.05078 54.615234 L 164.47656 74.722656 C 164.26322 75.895988 164.15625 77.015363 164.15625 78.082031 C 164.15625 82.348697 165.9175 85.548306 169.4375 87.681641 C 172.99306 89.814972 178.59188 90.882812 186.23633 90.882812 C 201.02744 90.882812 209.38273 85.495988 211.30273 74.722656 L 214.87695 54.615234 L 203.7832 54.615234 L 200.21094 74.722656 C 199.99761 75.967101 199.62318 77.032988 199.08984 77.921875 C 198.59206 78.810764 197.8643 79.540486 196.9043 80.109375 C 195.9443 80.678257 194.71599 81.087043 193.22266 81.335938 C 191.76488 81.584832 189.97122 81.708984 187.83789 81.708984 C 185.38456 81.708984 183.35781 81.621123 181.75781 81.443359 C 180.15781 81.26558 178.87602 80.980954 177.91602 80.589844 C 176.95602 80.198733 176.28174 79.682969 175.89062 79.042969 C 175.49951 78.402969 175.30273 77.619757 175.30273 76.695312 C 175.30273 76.126423 175.35623 75.469322 175.46289 74.722656 L 179.08984 54.615234 L 168.05078 54.615234 z M 235.64062 54.615234 C 232.51174 54.615234 229.84507 54.936172 227.64062 55.576172 C 225.43618 56.216172 223.62339 57.121588 222.20117 58.294922 C 220.81451 59.432698 219.80016 60.785165 219.16016 62.349609 C 218.52016 63.878499 218.20117 65.54995 218.20117 67.363281 C 218.20117 69.958839 219.1429 72.03712 221.02734 73.601562 C 222.91179 75.166007 225.88026 75.949219 229.93359 75.949219 L 249.40039 75.949219 C 251.64039 75.949219 252.76172 76.659808 252.76172 78.082031 C 252.76172 79.113142 252.4236 79.877224 251.74805 80.375 C 251.07249 80.872779 249.98747 81.123047 248.49414 81.123047 L 221.45508 81.123047 L 212.76172 90.294922 L 245.98828 90.294922 C 249.15273 90.294922 251.83657 89.975938 254.04102 89.335938 C 256.28102 88.660382 258.0938 87.735834 259.48047 86.5625 C 260.90269 85.353613 261.93422 83.93048 262.57422 82.294922 C 263.21422 80.659367 263.53516 78.882891 263.53516 76.962891 C 263.53516 74.296225 262.52081 72.286657 260.49414 70.935547 C 258.50303 69.548881 255.57087 68.855469 251.69531 68.855469 L 232.28125 68.855469 C 230.00569 68.855469 228.86719 68.181191 228.86719 66.830078 C 228.86719 65.763412 229.2053 65.01651 229.88086 64.589844 C 230.55641 64.12762 231.64143 63.896484 233.13477 63.896484 L 257.88086 63.896484 L 266.62695 54.615234 L 235.64062 54.615234 z M 272.54102 54.615234 L 266.19531 90.294922 L 300.54102 90.294922 L 309.28906 81.123047 L 278.88867 81.123047 L 279.74219 76.269531 L 301.71484 76.269531 L 309.39453 68.162109 L 281.18164 68.162109 L 281.92773 63.896484 L 305.02148 63.896484 L 313.82227 54.615234 L 272.54102 54.615234 z "
         transform="scale(0.26458333)"
         id="path43" />
    </g>
  </g>
</svg>
