<?xml version="1.0" encoding="UTF-8" standalone="no"?>
<!-- Created with Inkscape (http://www.inkscape.org/) -->

<svg
   xmlns:dc="http://purl.org/dc/elements/1.1/"
   xmlns:cc="http://creativecommons.org/ns#"
   xmlns:rdf="http://www.w3.org/1999/02/22-rdf-syntax-ns#"
   xmlns:svg="http://www.w3.org/2000/svg"
   xmlns="http://www.w3.org/2000/svg"
   version="1.1"
   width="40"
   height="30"
   id="hbmap">
  <polygon
     points="11.0625,2.0938 9.3920698,1.2928 7.5,1 4.9699066,1.5108 2.9038059,2.9038 1.5108022,4.9699 1,7.5 1.1506107,8.9303 1.59375,10.25 0.82536389,12.6717 0.57710795,15.0942 0.83717303,17.4697 1.59375,19.75 1.1506107,21.0697 1,22.5 1.5108022,25.0301 2.9038059,27.0962 4.9699066,28.4892 7.5,29 9.3920698,28.7072 11.0625,27.9063 15.587129,29.0555 20.145386,29.4465 24.63095,29.0674 28.9375,27.9063 30.60793,28.7072 32.5,29 35.030094,28.4892 37.096194,27.0962 38.489198,25.0301 39,22.5 38.849389,21.0697 38.40625,19.75 39.174637,17.3283 39.422892,14.9058 39.162827,12.5303 38.40625,10.25 38.849389,8.9303 39,7.5 38.489198,4.9699 37.096194,2.9038 35.030094,1.5108 32.5,1 30.60793,1.2928 28.9375,2.0938 24.412872,0.9445 19.854614,0.5535 15.369049,0.9326"
     id="outline"
     style="fill:#000080;stroke:none" />
  <polygon
     points="26.75,4.5 26.131327,6.4387 26.0625,8.3438 23.041822,6.6997 19.847012,6.1306 16.728696,6.6681 13.9375,8.3438 13.857108,6.3232 13.25,4.5 16.678673,3.7564 20.10535,3.5061 23.479352,3.7527"
     id="island1"
     style="fill:#ffffff;stroke:none" />
  <polygon
     points="11.28125,12.75 11.043615,15.0381 11.28125,17.25 9.4023805,16.3817 7.4753075,16.0736 5.5840182,16.3382 3.8125,17.1875 3.5534337,14.9632 3.8125,12.8125 5.7001636,13.6504 7.636602,13.9238 9.5281767,13.6259"
     id="island2"
     style="fill:#ffffff;stroke:none" />
  <polygon
     points="28.71875,12.75 30.597619,13.6184 32.524693,13.9264 34.415982,13.6618 36.1875,12.8125 36.446566,15.0369 36.1875,17.1875 34.299836,16.3496 32.363398,16.0762 30.471823,16.3741 28.71875,17.25 28.956385,14.9619"
     id="island3"
     style="fill:#ffffff;stroke:none" />
  <polygon
     points="13.9375,21.6563 16.958178,23.3003 20.152988,23.8694 23.271304,23.3319 26.0625,21.6563 26.142892,23.6768 26.75,25.5 23.321327,26.2436 19.89465,26.4939 16.520647,26.2473 13.25,25.5 13.868673,23.5613"
     id="island4"
     style="fill:#ffffff;stroke:none" />
  <polygon
     points="23,15 22.764245,16.946226 22.12132,18.535534 21.167735,19.607075 20,20 18.832265,19.607075 17.87868,18.535534 17.235755,16.946226 17,15 17.235755,13.053774 17.87868,11.464466 18.832265,10.392925 20,10 21.167735,10.392925 22.12132,11.464466 22.764245,13.053774"
     id="island5"
     style="fill:#ffffff;stroke:none" />
</svg>
