<?xml version="1.0" encoding="UTF-8" standalone="no"?>
<!-- Created with Inkscape (http://www.inkscape.org/) -->

<svg
   xmlns:dc="http://purl.org/dc/elements/1.1/"
   xmlns:cc="http://creativecommons.org/ns#"
   xmlns:rdf="http://www.w3.org/1999/02/22-rdf-syntax-ns#"
   xmlns:svg="http://www.w3.org/2000/svg"
   xmlns="http://www.w3.org/2000/svg"
   version="1.1"
   width="40"
   height="30"
   id="hbmap">
  <polygon
     points="11.0625,2.0938 9.3920698,1.2928 7.5,1 4.9699066,1.5108 2.9038059,2.9038 1.5108022,4.9699 1,7.5 1.1506107,8.9303 1.59375,10.25 0.82536389,12.6717 0.57710795,15.0942 0.83717303,17.4697 1.59375,19.75 1.1506107,21.0697 1,22.5 1.5108022,25.0301 2.9038059,27.0962 4.9699066,28.4892 7.5,29 9.3920698,28.7072 11.0625,27.9063 15.587129,29.0555 20.145386,29.4465 24.63095,29.0674 28.9375,27.9063 30.60793,28.7072 32.5,29 35.030094,28.4892 37.096194,27.0962 38.489198,25.0301 39,22.5 38.849389,21.0697 38.40625,19.75 39.174637,17.3283 39.422892,14.9058 39.162827,12.5303 38.40625,10.25 38.849389,8.9303 39,7.5 38.489198,4.9699 37.096194,2.9038 35.030094,1.5108 32.5,1 30.60793,1.2928 28.9375,2.0938 24.412872,0.9445 19.854614,0.5535 15.369049,0.9326"
     id="outline"
     style="fill:#000080;stroke:none" />
</svg>
