<?xml version="1.0" encoding="UTF-8" standalone="no"?>
<svg
   xmlns:dc="http://purl.org/dc/elements/1.1/"
   xmlns:cc="http://creativecommons.org/ns#"
   xmlns:rdf="http://www.w3.org/1999/02/22-rdf-syntax-ns#"
   xmlns:svg="http://www.w3.org/2000/svg"
   xmlns="http://www.w3.org/2000/svg"
   version="1.1"
   id="acedroidsarena"
   height="30"
   width="40">
  <metadata
     id="metadata12">
    <rdf:RDF>
      <cc:Work
         rdf:about="">
        <dc:format>image/svg+xml</dc:format>
        <dc:type
           rdf:resource="http://purl.org/dc/dcmitype/StillImage" />
        <dc:title></dc:title>
      </cc:Work>
    </rdf:RDF>
  </metadata>
  <defs
     id="defs10" />
  <rect
     style="opacity:1;fill:#ff0000;fill-opacity:1;stroke:none;stroke-width:30;stroke-linecap:round;stroke-linejoin:round;stroke-miterlimit:4;stroke-dasharray:none;stroke-opacity:1"
     id="fog"
     width="43.029659"
     height="33.305084"
     x="-1.9067796"
     y="-1.7796611"
     ry="0" />
  <polygon
     style="fill:#000000;stroke:none;fill-opacity:0.8592965"
     points="33.265489,0.67807926 28.866307,0.61707926 25.782886,1.6730792 22.509831,2.1462792 19.152261,1.7844792 16.1394,2.2085792 14.256349,3.4284792 12.098823,4.0497792 9.2246925,3.9937792 6.6364193,3.2938792 4.8634049,3.4189792 3.4449784,4.2587792 2.5252222,5.6375792 1.8523164,8.9450792 2.0410439,10.39718 2.7943537,13.14168 2.7348557,14.79928 1.2695824,20.69882 1.3087034,22.88502 2.0249294,25.04732 3.3401561,26.91762 5.0404084,28.33642 6.9117113,29.14432 8.7388489,29.44852 10.459134,29.49052 12.087388,29.31002 16.84409,28.446849 20.820313,26.82602 23.652101,24.70914 26.550089,23.714081 28.579991,23.743547 31.045953,24.911167 31.460044,27.104584 32.49418,28.52998 34.339985,28.819085 36.206505,27.867831 38.167138,25.473839 39.131375,22.084766 39.262392,19.11642 39.559215,17.10882 39.275184,15.06012 37.956977,11.84908 38.080814,10.43388 38.522034,7.4332792 36.689598,2.2133792"
     id="outline" />
  <polygon
     style="fill:#ffffff;stroke:none;"
     points="6.2489116,20.45752 7.4347358,19.43392 9.0603677,19.13292 12.150339,20.10072 14.802379,21.31092 15.296134,22.68612 14.084187,23.38402 11.6722,22.29772 9.0296179,22.41442 6.834661,22.70972 6.1198804,21.68482"
     id="island2" />
  <polygon
     style="fill:#ffffff;stroke:none;"
     points="9.8203398,10.41288 10.655903,9.2561792 12.342798,8.7541792 15.317757,8.5066792 18.389879,8.7825792 21.388728,9.3663792 24.134384,9.5041792 25.091551,10.27088 25.052241,11.65998 24.146589,12.45138 22.557644,12.34148 19.77043,12.56208 17.054821,13.22038 14.692691,14.83098 12.259322,13.69458 11.334397,11.66118 9.7900318,11.10198"
     id="island1" />
  <polygon
     style="fill:#ffffff;stroke:none;"
     points="30.802484,15.36822 29.634038,16.08092 26.852085,17.03822 26.244078,18.01082 26.898327,18.87302 28.132786,18.85202 30.538215,18.13652 31.660303,18.24442 32.020765,17.39352 32.106165,15.83802 33.604031,11.96078 33.486829,10.61648 32.098724,9.3564792 31.144698,10.59848 31.366813,12.36858"
     id="island3" />
</svg>
