<?xml version="1.0" encoding="UTF-8" standalone="no"?>
<!-- Created with Inkscape (http://www.inkscape.org/) -->

<svg xmlns:dc="http://purl.org/dc/elements/1.1/" xmlns:cc="http://creativecommons.org/ns#" xmlns:rdf="http://www.w3.org/1999/02/22-rdf-syntax-ns#" xmlns:svg="http://www.w3.org/2000/svg" xmlns="http://www.w3.org/2000/svg" xmlns:sodipodi="http://sodipodi.sourceforge.net/DTD/sodipodi-0.dtd" xmlns:inkscape="http://www.inkscape.org/namespaces/inkscape" width="30" height="30" viewBox="0 0 30 30" version="1.1" id="svg8" inkscape:version="0.92.3 (2405546, 2018-03-11)" sodipodi:docname="bounds.svg">
  <sodipodi:namedview id="base" pagecolor="#ffffff" bordercolor="#666666" borderopacity="1.0" inkscape:pageopacity="0.0" inkscape:pageshadow="2" inkscape:zoom="14.481547" inkscape:cx="-7.7483577" inkscape:cy="18.120493" inkscape:document-units="px" inkscape:current-layer="svg8" showgrid="false" inkscape:window-width="1920" inkscape:window-height="1027" inkscape:window-x="0" inkscape:window-y="0" inkscape:window-maximized="1" units="px" fit-margin-top="0" fit-margin-left="0" fit-margin-right="0" fit-margin-bottom="0" />
  <defs id="defs2" />
  <metadata id="metadata5">
    <rdf:RDF>
      <cc:Work rdf:about="">
        <dc:format>image/svg+xml</dc:format>
        <dc:type rdf:resource="http://purl.org/dc/dcmitype/StillImage" />
        <dc:title></dc:title>
      </cc:Work>
    </rdf:RDF>
  </metadata>
  <path style="fill:#cd0000;fill-opacity:1;stroke:none;stroke-width:0.02;stroke-linejoin:round;stroke-opacity:1" d="M 0,30 V 25.714243 H 4.285723 V 30 Z" id="path826" inkscape:connector-curvature="0" />
  <path style="fill:#cd0000;fill-opacity:1;stroke:none;stroke-width:0.02;stroke-linejoin:round;stroke-opacity:1" d="M 25.714297,30 L 25.714297,25.714243 H 30 V 30 Z" id="path824" inkscape:connector-curvature="0" />
  <path style="fill:#874000;fill-opacity:0.89648438;stroke:none;stroke-width:0.02;stroke-linejoin:round;stroke-opacity:1" d="M 17.43545,24.223049 L 15.465821,23.875717 V 23.875717 L 14.781778,21.996364 L 12.812168,21.649133 L 11.526602,23.181154 V 23.181154 L 9.556973,22.833822 L 8.87293,20.954469 L 6.903321,20.607238 L 6.219258,18.727886 L 4.249649,18.380554 L 3.565606,16.501301 L 4.851172,14.96918 L 4.16711,13.089827 L 5.452676,11.557805 L 4.768633,9.678453 L 6.054199,8.146431 L 8.023809,8.493763 L 9.309375,6.961741 L 11.279004,7.308973 L 11.963047,9.188326 L 13.932656,9.535657 L 14.616719,11.41501 L 16.586329,11.762242 L 17.871895,10.23022 L 17.187853,8.350867 L 18.473418,6.818846 L 20.443028,7.166178 L 21.12707,9.045531 L 23.096699,9.392762 L 23.780742,11.272115 L 22.495177,12.804136 L 23.179219,14.683489 L 25.148848,15.030821 L 25.832891,16.910174 L 24.547324,18.442195 L 25.231367,20.321547 L 23.945801,21.853569 L 21.976192,21.506237 L 20.690624,23.038259 L 18.721016,22.691027 Z" id="outline" inkscape:connector-curvature="0" />
  <path style="fill:#00ff00;fill-opacity:1;stroke:none;stroke-width:0.02;stroke-linejoin:round;stroke-opacity:1" d="M 12.128906,19.769531 L 10.158203,19.421875 L 9.474609,17.542969 L 10.759766,16.011719 L 12.730469,16.359375 L 13.414062,18.238281 Z M 21.292969,19.626953 L 19.322266,19.279297 L 18.638672,17.400391 L 16.667969,17.052734 L 15.984375,15.173828 L 17.269531,13.640625 L 19.240234,13.988281 L 19.923828,15.869141 L 21.894531,16.214844 L 22.578125,18.095703 Z M 10.076172,14.130859 L 8.105469,13.785156 L 7.421875,11.904297 L 8.707031,10.373047 L 10.677734,10.720703 L 11.361328,12.599609 Z" id="islands" inkscape:connector-curvature="0" />
  <path style="fill:#cd0000;fill-opacity:1;stroke:none;stroke-width:0.02;stroke-linejoin:round;stroke-opacity:1" d="M 0,4.285757 V 0 H 4.285723 V 4.285757 Z" id="path814" inkscape:connector-curvature="0" />
  <path style="fill:#cd0000;fill-opacity:1;stroke:none;stroke-width:0.02;stroke-linejoin:round;stroke-opacity:1" d="M 25.714297,4.285757 V 0 H 30 V 4.285757 Z" id="path1029" inkscape:connector-curvature="0" />
</svg>
