<?xml version="1.0" encoding="UTF-8" standalone="no"?>
<!-- Created with Inkscape (http://www.inkscape.org/) -->

<svg xmlns:dc="http://purl.org/dc/elements/1.1/" xmlns:cc="http://creativecommons.org/ns#" xmlns:rdf="http://www.w3.org/1999/02/22-rdf-syntax-ns#" xmlns:svg="http://www.w3.org/2000/svg" xmlns="http://www.w3.org/2000/svg" xmlns:sodipodi="http://sodipodi.sourceforge.net/DTD/sodipodi-0.dtd" xmlns:inkscape="http://www.inkscape.org/namespaces/inkscape" width="30" height="30" viewBox="0 0 30 30" version="1.1" id="svg8" inkscape:version="0.92.3 (2405546, 2018-03-11)" sodipodi:docname="map.svg">
  <sodipodi:namedview id="base" pagecolor="#ffffff" bordercolor="#666666" borderopacity="1.0" inkscape:pageopacity="0.0" inkscape:pageshadow="2" inkscape:zoom="14.481547" inkscape:cx="-0.15248367" inkscape:cy="18.120493" inkscape:document-units="px" inkscape:current-layer="svg8" showgrid="false" inkscape:window-width="1920" inkscape:window-height="1027" inkscape:window-x="0" inkscape:window-y="0" inkscape:window-maximized="1" units="px" fit-margin-top="0" fit-margin-left="0" fit-margin-right="0" fit-margin-bottom="0" />
  <defs id="defs2" />
  <metadata id="metadata5">
    <rdf:RDF>
      <cc:Work rdf:about="">
        <dc:format>image/svg+xml</dc:format>
        <dc:type rdf:resource="http://purl.org/dc/dcmitype/StillImage" />
        <dc:title></dc:title>
      </cc:Work>
    </rdf:RDF>
  </metadata>
  <path style="fill:#cd0000;fill-opacity:1;stroke:none;stroke-width:0.02;stroke-linejoin:round;stroke-opacity:1" d="M 30,0 V 4.2857573 H 25.714277 V 0 Z" id="path826" inkscape:connector-curvature="0" />
  <path style="fill:#cd0000;fill-opacity:1;stroke:none;stroke-width:0.02;stroke-linejoin:round;stroke-opacity:1" d="M 4.285703,0 V 4.2857573 H 0 V 0 Z" id="path824" inkscape:connector-curvature="0" />
  <path style="fill:#874000;fill-opacity:0.89648438;stroke:none;stroke-width:0.02;stroke-linejoin:round;stroke-opacity:1" d="M 12.56455,5.7769514 L 14.534179,6.124283 V 6.124283 L 15.218222,8.003636 L 17.187832,8.3508674 L 18.473398,6.8188461 V 6.8188461 L 20.443027,7.1661776 L 21.12707,9.0455306 L 23.096679,9.3927621 L 23.780742,11.272114 L 25.750351,11.619446 L 26.434394,13.498699 L 25.148828,15.03082 L 25.83289,16.910173 L 24.547324,18.442195 L 25.231367,20.321547 L 23.945801,21.853569 L 21.976191,21.506237 L 20.690625,23.038259 L 18.720996,22.691027 L 18.036953,20.811674 L 16.067344,20.464343 L 15.383281,18.58499 L 13.413671,18.237758 L 12.128105,19.76978 L 12.812147,21.649133 L 11.526582,23.181154 L 9.556972,22.833822 L 8.87293,20.954469 L 6.903301,20.607238 L 6.219258,18.727885 L 7.504823,17.195864 L 6.820781,15.316511 L 4.851152,14.969179 L 4.167109,13.089826 L 5.452676,11.557805 L 4.768633,9.6784525 L 6.054199,8.1464312 L 8.023808,8.4937627 L 9.309376,6.9617413 L 11.278984,7.3089728 Z" id="outline" inkscape:connector-curvature="0" />
  <path style="fill:#00ff00;fill-opacity:1;stroke:none;stroke-width:0.02;stroke-linejoin:round;stroke-opacity:1" d="M 17.871094,10.230469 L 19.841797,10.578125 L 20.525391,12.457031 L 19.240234,13.988281 L 17.269531,13.640625 L 16.585938,11.761719 Z M 8.707031,10.373047 L 10.677734,10.720703 L 11.361328,12.599609 L 13.332031,12.947266 L 14.015625,14.826172 L 12.730469,16.359375 L 10.759766,16.011719 L 10.076172,14.130859 L 8.105469,13.785156 L 7.421875,11.904297 Z M 19.923828,15.869141 L 21.894531,16.214844 L 22.578125,18.095703 L 21.292969,19.626953 L 19.322266,19.279297 L 18.638672,17.400391 Z" id="islands" inkscape:connector-curvature="0" />
  <path style="fill:#cd0000;fill-opacity:1;stroke:none;stroke-width:0.02;stroke-linejoin:round;stroke-opacity:1" d="M 30,25.714243 V 30 H 25.714277 V 25.714243 Z" id="path814" inkscape:connector-curvature="0" />
  <path style="fill:#cd0000;fill-opacity:1;stroke:none;stroke-width:0.02;stroke-linejoin:round;stroke-opacity:1" d="M 4.285703,25.714243 V 30 H 0 V 25.714243 Z" id="path1029" inkscape:connector-curvature="0" />
  <text id="config" y="35.46727" x="-8.4552279" style="font-style:normal;font-weight:normal;font-size:12.12555885px;line-height:125%;font-family:sans-serif;letter-spacing:0px;word-spacing:0px;fill:#000000;fill-opacity:1;stroke:none;stroke-width:1px;stroke-linecap:butt;stroke-linejoin:miter;stroke-opacity:1" xml:space="preserve"><tspan style="font-size:4px;stroke-width:1px" y="35.46727" x="-8.4552279" id="tspan816">{&quot;MAP_SCALING&quot;:1.7}</tspan></text>
</svg>
