<?xml version="1.0" encoding="UTF-8" standalone="no"?>
<!-- Created with Inkscape (http://www.inkscape.org/) -->

<svg xmlns:dc="http://purl.org/dc/elements/1.1/" xmlns:cc="http://creativecommons.org/ns#" xmlns:rdf="http://www.w3.org/1999/02/22-rdf-syntax-ns#" xmlns:svg="http://www.w3.org/2000/svg" xmlns="http://www.w3.org/2000/svg" xmlns:sodipodi="http://sodipodi.sourceforge.net/DTD/sodipodi-0.dtd" xmlns:inkscape="http://www.inkscape.org/namespaces/inkscape" width="40" height="40" viewBox="0 0 40 40" version="1.1" id="svg8" inkscape:version="0.92.3 (2405546, 2018-03-11)" sodipodi:docname="map.svg">
  <defs id="defs2" />
  <sodipodi:namedview id="base" pagecolor="#ffffff" bordercolor="#666666" borderopacity="1.0" inkscape:pageopacity="0.0" inkscape:pageshadow="2" inkscape:zoom="11.2" inkscape:cx="9.7267087" inkscape:cy="24.052837" inkscape:document-units="px" inkscape:current-layer="svg8" showgrid="false" units="px" inkscape:window-width="1920" inkscape:window-height="1027" inkscape:window-x="0" inkscape:window-y="0" inkscape:window-maximized="1" />
  <metadata id="metadata5">
    <rdf:RDF>
      <cc:Work rdf:about="">
        <dc:format>image/svg+xml</dc:format>
        <dc:type rdf:resource="http://purl.org/dc/dcmitype/StillImage" />
        <dc:title></dc:title>
      </cc:Work>
    </rdf:RDF>
  </metadata>
  <path style="opacity:1;fill:#00ccff;fill-opacity:0.67578125;stroke:none;stroke-width:4;stroke-linecap:round;stroke-linejoin:round;stroke-miterlimit:4;stroke-dasharray:none;stroke-dashoffset:0;stroke-opacity:1" d="M 34.613043,16.505105 C 34.613043,18.486513 34.617059,20.219188 34.592758,21.734354 C 34.568457,23.24952 34.515838,24.547177 34.402569,25.658549 C 34.2893,26.76992 34.11538,27.695007 33.848475,28.465031 C 33.581571,29.235056 33.221682,29.850019 32.736476,30.341144 C 32.25127,30.832269 31.640746,31.199557 30.872571,31.474229 C 30.104396,31.748902 29.17857,31.930961 28.062759,32.051629 C 26.946948,32.172297 25.641152,32.231574 24.113039,32.260684 C 22.584925,32.289794 20.834493,32.288738 18.82941,32.288738 C 16.832219,32.288738 15.087706,32.288808 13.563908,32.258095 C 12.04011,32.227382 10.737027,32.165885 9.6226962,32.042751 C 8.508365,31.919617 7.5827853,31.734846 6.8139936,31.457584 C 6.0452019,31.180321 5.4331982,30.810568 4.946019,30.31747 C 4.4588397,29.824372 4.096485,29.207929 3.8269911,28.437288 C 3.5574973,27.666646 3.3808644,26.741806 3.2651289,25.631914 C 3.1493934,24.522022 3.0945553,23.227078 3.0686511,21.716228 C 3.0427468,20.205377 3.0457765,18.478621 3.0457765,16.505105 C 3.0457765,14.555264 3.0476792,12.846265 3.0815986,11.348362 C 3.1155179,9.8504594 3.1814539,8.5636544 3.3095204,7.4582014 C 3.4375868,6.3527484 3.6277838,5.4286484 3.9102251,4.6561574 C 4.1926665,3.8836664 4.5673522,3.2627844 5.0643962,2.7637674 C 5.5614403,2.2647504 6.1808425,1.8875984 6.952717,1.6025674 C 7.7245914,1.3175364 8.648938,1.1246274 9.7558707,0.99409436 C 10.862803,0.86356136 12.152322,0.79540636 13.654541,0.75988436 C 15.156759,0.72436136 16.871678,0.72147236 18.82941,0.72147236 C 20.771359,0.72147236 22.474439,0.72436136 23.968026,0.75988436 C 25.461613,0.79540636 26.745706,0.86356136 27.849679,0.99409436 C 28.953652,1.1246274 29.877506,1.3175364 30.650613,1.6025674 C 31.423721,1.8875984 32.046082,2.2647504 32.547072,2.7637674 C 33.048062,3.2627844 33.42768,3.8836664 33.715301,4.6561574 C 34.002921,5.4286484 34.198544,6.3527484 34.331543,7.4582014 C 34.464541,8.5636544 34.534917,9.8504594 34.572042,11.348362 C 34.609167,12.846265 34.613043,14.555264 34.613043,16.505105 Z" id="outline" inkscape:connector-curvature="0" sodipodi:nodetypes="sssssssssssssssssssssssssssssssss" />
</svg>
